<svg width="200" height="35" viewBox="0 0 200 35" fill="none" xmlns="http://www.w3.org/2000/svg">
<g clip-path="url(#clip0_279_29)">
<path d="M17.2788 34.0101V27.4812C24.1777 27.4812 29.4845 20.6192 26.8643 13.3575C25.8692 10.6593 23.7465 8.4941 21.0599 7.52809C13.8294 4.89655 6.99692 10.2263 6.99692 17.1549H0.496094C0.496094 6.12905 11.1097 -2.46511 22.6188 1.13244C27.6603 2.69804 31.6404 6.72864 33.1992 11.7586C36.7813 23.3507 28.2573 34.0101 17.2788 34.0101Z" fill="#0080FF"/>
<path fill-rule="evenodd" clip-rule="evenodd" d="M17.2802 27.4812H10.8125V20.9856H17.2802V27.4812Z" fill="#0080FF"/>
<path fill-rule="evenodd" clip-rule="evenodd" d="M10.8111 32.4778H5.83594V27.4812H10.8111V32.4778Z" fill="#0080FF"/>
<path fill-rule="evenodd" clip-rule="evenodd" d="M5.83535 27.4812H1.65625V23.3174H5.83535V27.4812Z" fill="#0080FF"/>
<path d="M60.1987 10.0595C58.275 8.72711 55.887 8.02759 53.1009 8.02759H47.0312V27.3811H53.1009C55.887 27.3811 58.275 26.6816 60.1987 25.2492C61.2601 24.5164 62.0893 23.4504 62.6531 22.1513C63.217 20.8522 63.5155 19.3199 63.5155 17.5878C63.5155 15.8889 63.217 14.3566 62.6531 13.0575C62.0893 11.7917 61.2601 10.7591 60.1987 10.0595ZM50.5802 11.3253H52.5039C54.6266 11.3253 56.3845 11.7584 57.7112 12.5578C59.1706 13.4572 59.9334 15.1561 59.9334 17.5878C59.9334 20.1194 59.1706 21.8848 57.7112 22.8508C56.4508 23.6836 54.6929 24.1166 52.5371 24.1166H50.6133V11.3253H50.5802Z" fill="#0080FF"/>
<path d="M67.7594 7.79443C67.1624 7.79443 66.6649 7.9943 66.2669 8.39403C65.8689 8.79375 65.6367 9.29341 65.6367 9.8597C65.6367 10.4593 65.8357 10.9589 66.2669 11.3587C66.6649 11.7584 67.1624 11.9916 67.7594 11.9916C68.3565 11.9916 68.854 11.7917 69.252 11.3587C69.65 10.9589 69.8822 10.426 69.8822 9.8597C69.8822 9.2601 69.6832 8.76044 69.252 8.39403C68.854 7.9943 68.3233 7.79443 67.7594 7.79443Z" fill="#0080FF"/>
<path d="M69.4202 13.7571H66.0039V27.4145H69.4202V13.7571Z" fill="#0080FF"/>
<path d="M81.8585 14.8897C80.8303 13.957 79.6694 13.4241 78.4422 13.4241C76.5517 13.4241 74.9928 14.0903 73.7656 15.3561C72.5384 16.6219 71.9414 18.2874 71.9414 20.2528C71.9414 22.1848 72.5384 23.817 73.7656 25.1494C74.9928 26.4152 76.5517 27.0815 78.4422 27.0815C79.7689 27.0815 80.8966 26.715 81.8253 25.9822V26.3153C81.8253 27.4479 81.5268 28.3139 80.9298 28.9469C80.3328 29.5464 79.5036 29.8462 78.4754 29.8462C76.8834 29.8462 75.9215 29.2133 74.6943 27.5811L72.3726 29.8129L72.4389 29.9129C72.9364 30.6124 73.6993 31.3119 74.7275 31.9781C75.7557 32.6443 77.016 32.9774 78.5417 32.9774C80.565 32.9774 82.2233 32.3445 83.4174 31.112C84.6446 29.8795 85.2416 28.214 85.2416 26.1488V13.7572H81.8917V14.8897H81.8585ZM80.963 22.9509C80.366 23.6171 79.6031 23.9502 78.6081 23.9502C77.613 23.9502 76.8502 23.6171 76.2863 22.9509C75.6893 22.2847 75.3908 21.3853 75.3908 20.2861C75.3908 19.1868 75.6893 18.2541 76.2863 17.5879C76.8834 16.9217 77.6462 16.5553 78.6081 16.5553C79.6031 16.5553 80.366 16.8884 80.963 17.5879C81.56 18.2541 81.8585 19.1868 81.8585 20.2861C81.8585 21.3853 81.5268 22.2847 80.963 22.9509Z" fill="#0080FF"/>
<path d="M91.5412 13.7571H88.125V27.4145H91.5412V13.7571Z" fill="#0080FF"/>
<path d="M89.8844 7.79443C89.2874 7.79443 88.7899 7.9943 88.3919 8.39403C87.9939 8.79375 87.7617 9.29341 87.7617 9.8597C87.7617 10.4593 87.9607 10.9589 88.3919 11.3587C88.7899 11.7584 89.2874 11.9916 89.8844 11.9916C90.4815 11.9916 90.979 11.7917 91.377 11.3587C91.775 10.9589 92.0072 10.426 92.0072 9.8597C92.0072 9.2601 91.8082 8.76044 91.377 8.39403C90.979 7.9943 90.4483 7.79443 89.8844 7.79443Z" fill="#0080FF"/>
<path d="M99.0373 10.093H95.6874V13.7905H93.7305V16.9217H95.6874V22.5845C95.6874 24.35 96.0522 25.6158 96.7487 26.3486C97.4452 27.0815 98.6724 27.4479 100.43 27.4479C100.994 27.4479 101.558 27.4146 102.089 27.3813H102.255V24.2501L101.094 24.3167C100.264 24.3167 99.7338 24.1834 99.4685 23.8836C99.2031 23.5838 99.0705 22.9843 99.0705 22.0849V16.8884H102.255V13.7572H99.0705V10.093H99.0373Z" fill="#0080FF"/>
<path d="M121.658 8.02759H118.242V27.3811H121.658V8.02759Z" fill="#0080FF"/>
<path d="M156.184 22.5179C155.587 23.2174 154.957 23.817 154.459 24.1168C153.995 24.4166 153.398 24.5832 152.701 24.5832C151.706 24.5832 150.877 24.2167 150.214 23.4506C149.551 22.6844 149.219 21.7184 149.219 20.5526C149.219 19.3867 149.551 18.4207 150.181 17.6878C150.844 16.9217 151.64 16.5553 152.635 16.5553C153.73 16.5553 154.891 17.2548 155.886 18.4207L158.141 16.2555C156.682 14.3235 154.791 13.4241 152.536 13.4241C150.645 13.4241 149.02 14.1236 147.693 15.456C146.366 16.7885 145.703 18.5206 145.703 20.5526C145.703 22.5845 146.366 24.2834 147.693 25.6491C149.02 27.0148 150.645 27.681 152.536 27.681C155.023 27.681 157.013 26.6151 158.34 24.6498L156.184 22.5179Z" fill="#0080FF"/>
<path d="M170.215 15.6559C169.717 14.9897 169.054 14.4234 168.258 14.0237C167.428 13.6239 166.5 13.4241 165.438 13.4241C163.515 13.4241 161.956 14.1236 160.795 15.5226C159.667 16.9217 159.07 18.6205 159.07 20.6525C159.07 22.7178 159.7 24.4166 160.961 25.749C162.188 27.0481 163.88 27.7144 165.903 27.7144C168.191 27.7144 170.115 26.7817 171.508 24.9163L171.574 24.8163L169.352 22.6511C169.153 22.9176 168.855 23.1841 168.589 23.4506C168.258 23.7837 167.926 24.0169 167.594 24.1834C167.097 24.4499 166.5 24.5498 165.87 24.5498C164.908 24.5498 164.145 24.2834 163.548 23.7171C162.984 23.2174 162.652 22.5179 162.586 21.6518H171.641L171.674 20.386C171.674 19.4866 171.541 18.6538 171.309 17.8544C171.077 17.0882 170.712 16.3554 170.215 15.6559ZM162.752 18.887C162.918 18.2208 163.216 17.6878 163.647 17.2548C164.112 16.7885 164.709 16.5553 165.438 16.5553C166.268 16.5553 166.898 16.7885 167.329 17.2548C167.727 17.6878 167.959 18.2208 168.026 18.8537H162.752V18.887Z" fill="#0080FF"/>
<path d="M183.351 14.7897C182.322 13.8903 180.896 13.4573 179.105 13.4573C177.977 13.4573 176.916 13.7238 175.954 14.1901C175.059 14.6565 174.196 15.3893 173.632 16.3886L173.666 16.4219L175.855 18.5205C176.75 17.0881 177.745 16.5885 179.072 16.5885C179.802 16.5885 180.365 16.7883 180.83 17.1548C181.294 17.5212 181.493 18.0208 181.493 18.6204V19.2866C180.631 19.0202 179.802 18.8869 178.972 18.8869C177.281 18.8869 175.888 19.2866 174.86 20.0861C173.831 20.8856 173.301 22.0514 173.301 23.4838C173.301 24.7496 173.732 25.8155 174.627 26.5817C175.523 27.3145 176.618 27.7142 177.911 27.7142C179.205 27.7142 180.432 27.1813 181.526 26.2819V27.4145H184.876V18.6204C184.943 16.9882 184.412 15.6891 183.351 14.7897ZM177.281 22.1847C177.679 21.9182 178.21 21.7849 178.906 21.7849C179.735 21.7849 180.598 21.9515 181.493 22.2846V23.617C180.763 24.3166 179.768 24.6497 178.541 24.6497C177.944 24.6497 177.48 24.5164 177.181 24.2499C176.883 23.9835 176.717 23.6837 176.717 23.2506C176.717 22.8176 176.916 22.4512 177.281 22.1847Z" fill="#0080FF"/>
<path d="M198.075 15.0562C197.113 13.9902 195.786 13.4573 194.094 13.4573C192.735 13.4573 191.64 13.857 190.811 14.6231V13.7904H187.461V27.4478H190.877V19.8862C190.877 18.8536 191.109 18.0208 191.607 17.4546C192.104 16.855 192.735 16.5885 193.63 16.5885C194.393 16.5885 194.99 16.855 195.421 17.3546C195.852 17.8876 196.084 18.5871 196.084 19.4865V27.3811H199.501V19.4865C199.501 17.6211 199.036 16.1221 198.075 15.0562Z" fill="#0080FF"/>
<path d="M113.964 14.7897C112.936 13.8903 111.509 13.4573 109.718 13.4573C108.591 13.4573 107.529 13.7238 106.567 14.1901C105.672 14.6565 104.81 15.3893 104.246 16.3886L104.279 16.4219L106.468 18.5205C107.363 17.0881 108.359 16.5885 109.685 16.5885C110.415 16.5885 110.979 16.7883 111.443 17.1548C111.907 17.5212 112.106 18.0208 112.106 18.6204V19.2866C111.244 19.0202 110.415 18.8869 109.586 18.8869C107.894 18.8869 106.501 19.2866 105.473 20.0861C104.445 20.8856 103.914 22.0514 103.914 23.4838C103.914 24.7496 104.345 25.8155 105.241 26.5817C106.136 27.3145 107.231 27.7142 108.524 27.7142C109.818 27.7142 111.045 27.1813 112.14 26.2819V27.4145H115.49V18.6204C115.523 16.9882 114.992 15.6891 113.964 14.7897ZM107.894 22.1847C108.292 21.9182 108.823 21.7849 109.519 21.7849C110.349 21.7849 111.211 21.9515 112.106 22.2846V23.617C111.377 24.3166 110.382 24.6497 109.155 24.6497C108.558 24.6497 108.093 24.5164 107.795 24.2499C107.496 23.9835 107.33 23.6837 107.33 23.2506C107.33 22.8176 107.496 22.4512 107.894 22.1847Z" fill="#0080FF"/>
<path d="M134.064 27.681C128.591 27.681 124.113 23.2174 124.113 17.6878C124.113 12.1582 128.558 7.69458 134.064 7.69458C139.536 7.69458 144.014 12.1582 144.014 17.6878C144.014 23.2174 139.536 27.681 134.064 27.681ZM134.064 11.2588C130.515 11.2588 127.629 14.1569 127.629 17.7211C127.629 21.2853 130.515 24.1834 134.064 24.1834C137.612 24.1834 140.498 21.2853 140.498 17.7211C140.498 14.1569 137.612 11.2588 134.064 11.2588Z" fill="#0080FF"/>
</g>
<defs>
<clipPath id="clip0_279_29">
<rect width="200" height="34.31" fill="white"/>
</clipPath>
</defs>
</svg>
