<svg width="274" height="47" viewBox="0 0 274 47" fill="none" xmlns="http://www.w3.org/2000/svg">
<path d="M29.7233 2.04346H2.97234C1.33076 2.04346 0 3.37422 0 5.0158V42.6653C0 44.3068 1.33076 45.6376 2.97234 45.6376H29.7233C31.3649 45.6376 32.6957 44.3068 32.6957 42.6653V5.0158C32.6957 3.37422 31.3649 2.04346 29.7233 2.04346Z" fill="#4F3895"/>
<path d="M23.0348 12.447H9.65921C6.78646 12.447 4.45764 14.7758 4.45764 17.6485V17.6486C4.45764 20.5213 6.78646 22.8501 9.65921 22.8501H23.0348C25.9076 22.8501 28.2364 20.5213 28.2364 17.6486V17.6485C28.2364 14.7758 25.9076 12.447 23.0348 12.447Z" fill="white"/>
<path d="M14.1175 17.6281C14.1175 19.0757 12.7868 20.2492 11.1452 20.2492C9.50361 20.2492 8.17285 19.0757 8.17285 17.6281C8.17285 16.1805 9.50361 15.0477 11.1452 15.0477C12.7868 15.0477 14.1175 16.1805 14.1175 17.6281Z" fill="#4F3895"/>
<path d="M21.5488 20.2493C23.1903 20.2493 24.5211 19.0848 24.5211 17.6485C24.5211 16.2121 23.1903 15.0477 21.5488 15.0477C19.9072 15.0477 18.5764 16.2121 18.5764 17.6485C18.5764 19.0848 19.9072 20.2493 21.5488 20.2493Z" fill="#4F3895"/>
<path d="M64.4078 26.0748H78.7939V22.1513H64.4078V9.07304H82.0635V5.14956H64.4078H59.1765V9.07304V22.1513V26.0748V43.0765H64.4078V26.0748ZM93.2566 43.7304C99.5342 43.7304 104.7 38.6299 104.7 32.287C104.7 26.0094 99.5342 20.8435 93.2566 20.8435C86.9137 20.8435 81.8131 26.0094 81.8131 32.287C81.8131 38.6299 86.9137 43.7304 93.2566 43.7304ZM93.2566 24.767C96.657 24.767 99.4688 28.1673 99.4688 32.287C99.4688 36.472 96.657 39.807 93.2566 39.807C89.7909 39.807 87.0444 36.472 87.0444 32.287C87.0444 28.1673 89.7909 24.767 93.2566 24.767ZM114.215 32.287C114.215 28.1673 116.962 24.767 120.427 24.767C120.82 24.767 121.277 24.8323 121.735 24.9631V20.9089C121.408 20.9089 121.081 20.8435 120.754 20.8435C118.269 20.8435 116.046 21.6936 114.215 23.0668V21.5628H108.984V43.0765H114.215V32.287ZM150.842 20.8435C147.965 20.8435 145.349 22.2167 143.649 24.3092C141.883 22.2167 139.333 20.8435 136.456 20.8435C134.625 20.8435 132.925 21.3666 131.551 22.2821V21.4974H126.32V43.0765H131.551V30.5868C131.551 27.3826 133.579 24.767 136.063 24.767C138.614 24.767 140.641 27.448 140.641 30.6522V43.0765H145.937V30.6522H145.872C145.937 27.3826 147.965 24.767 150.449 24.767C153 24.767 155.027 27.448 155.027 30.6522V43.0765H160.324V30.6522C160.324 25.2901 156.073 20.8435 150.842 20.8435ZM176.046 43.7304C180.427 43.7304 184.285 41.2456 186.181 37.5183H180.492C179.315 38.9569 177.746 39.807 176.046 39.807C173.168 39.807 170.749 37.4529 170.03 34.2487H181.996H187.293C187.424 33.6602 187.489 33.0063 187.489 32.287C187.489 31.633 187.424 30.9791 187.293 30.3252C186.378 24.9631 181.669 20.8435 176.046 20.8435C170.357 20.8435 165.648 24.9631 164.733 30.3252C164.602 30.9791 164.602 31.633 164.602 32.287C164.602 33.0063 164.602 33.6602 164.733 34.2487C165.648 39.6762 170.357 43.7304 176.046 43.7304ZM176.046 24.767C178.858 24.767 181.277 27.1864 181.996 30.3252H170.03C170.749 27.1864 173.168 24.767 176.046 24.767ZM207.807 32.2216C206.042 31.0445 203.622 30.3906 201.007 30.3906C198.653 30.3906 196.756 29.0828 196.756 27.5788C196.756 26.0748 198.653 24.8323 201.007 24.8323C203.295 24.8323 205.257 26.0748 205.257 27.5788H210.489C210.489 23.8515 206.238 20.9089 201.007 20.9089C195.71 20.9089 191.525 23.8515 191.525 27.5788C191.525 29.4097 192.506 31.0445 194.141 32.2216C195.906 33.5294 198.326 34.3141 201.007 34.3141C203.492 34.3141 205.584 35.5565 205.584 37.0605C205.584 38.5645 203.492 39.8723 201.007 39.8723C198.457 39.8723 196.429 38.5645 196.429 37.0605H191.198C191.198 40.7878 195.579 43.7958 201.007 43.7958C206.369 43.7958 210.815 40.7878 210.815 37.0605C210.815 35.1642 209.638 33.464 207.807 32.2216ZM223.166 3.84174H217.935V21.5628H214.665V25.4863H217.935V35.5565C217.935 40.1339 221.531 43.7304 226.109 43.7304H228.071V39.807H226.109C224.474 39.807 223.166 37.9106 223.166 35.5565V25.4863H229.378V21.5628H223.166V3.84174ZM243.38 43.7304C247.762 43.7304 251.62 41.2456 253.516 37.5183H247.827C246.65 38.9569 245.081 39.807 243.38 39.807C240.503 39.807 238.084 37.4529 237.364 34.2487H249.331H254.628C254.758 33.6602 254.824 33.0063 254.824 32.287C254.824 31.633 254.758 30.9791 254.628 30.3252C253.712 24.9631 249.004 20.8435 243.38 20.8435C237.691 20.8435 232.983 24.9631 232.068 30.3252C231.937 30.9791 231.937 31.633 231.937 32.287C231.937 33.0063 231.937 33.6602 232.068 34.2487C232.983 39.6762 237.691 43.7304 243.38 43.7304ZM243.38 24.767C246.192 24.767 248.612 27.1864 249.331 30.3252H237.364C238.084 27.1864 240.503 24.767 243.38 24.767ZM264.338 32.287C264.338 28.1673 267.085 24.767 270.55 24.767C270.943 24.767 271.401 24.8323 271.858 24.9631V20.9089C271.531 20.9089 271.204 20.8435 270.877 20.8435C268.393 20.8435 266.169 21.6936 264.338 23.0668V21.5628H259.107V43.0765H264.338V32.287Z" fill="#4F3895"/>
</svg>
