<svg width="200" height="35" viewBox="0 0 200 35" fill="none" xmlns="http://www.w3.org/2000/svg">
<path d="M21.6958 1.49146H2.16959C0.971358 1.49146 0 2.46281 0 3.66105V31.1424C0 32.3406 0.971358 33.312 2.16959 33.312H21.6958C22.8941 33.312 23.8655 32.3406 23.8655 31.1424V3.66105C23.8655 2.46281 22.8941 1.49146 21.6958 1.49146Z" fill="#4F3895"/>
<path d="M16.8139 9.08545H7.05067C4.95377 9.08545 3.25391 10.7853 3.25391 12.8822V12.8822C3.25391 14.9791 4.95377 16.679 7.05067 16.679H16.8139C18.9108 16.679 20.6107 14.9791 20.6107 12.8822V12.8822C20.6107 10.7853 18.9108 9.08545 16.8139 9.08545Z" fill="white"/>
<path d="M10.304 12.8671C10.304 13.9238 9.33269 14.7804 8.13444 14.7804C6.9362 14.7804 5.96484 13.9238 5.96484 12.8671C5.96484 11.8105 6.9362 10.9836 8.13444 10.9836C9.33269 10.9836 10.304 11.8105 10.304 12.8671Z" fill="#4F3895"/>
<path d="M15.7282 14.7804C16.9264 14.7804 17.8978 13.9304 17.8978 12.882C17.8978 11.8336 16.9264 10.9836 15.7282 10.9836C14.53 10.9836 13.5586 11.8336 13.5586 12.882C13.5586 13.9304 14.53 14.7804 15.7282 14.7804Z" fill="#4F3895"/>
<path d="M47.0138 19.0327H57.5146V16.1688H47.0138V6.62267H59.9012V3.75881H47.0138H43.1953V6.62267V16.1688V19.0327V31.4427H47.0138V19.0327ZM68.0713 31.92C72.6535 31.92 76.4241 28.197 76.4241 23.5672C76.4241 18.985 72.6535 15.2142 68.0713 15.2142C63.4414 15.2142 59.7184 18.985 59.7184 23.5672C59.7184 28.197 63.4414 31.92 68.0713 31.92ZM68.0713 18.0781C70.5533 18.0781 72.6058 20.5601 72.6058 23.5672C72.6058 26.6219 70.5533 29.0562 68.0713 29.0562C65.5416 29.0562 63.5368 26.6219 63.5368 23.5672C63.5368 20.5601 65.5416 18.0781 68.0713 18.0781ZM83.3694 23.5672C83.3694 20.5601 85.3745 18.0781 87.9037 18.0781C88.1906 18.0781 88.5241 18.1258 88.8585 18.2213V15.262C88.6198 15.262 88.3811 15.2142 88.1424 15.2142C86.3285 15.2142 84.7059 15.8348 83.3694 16.8371V15.7393H79.5512V31.4427H83.3694V23.5672ZM110.104 15.2142C108.004 15.2142 106.095 16.2166 104.854 17.744C103.565 16.2166 101.704 15.2142 99.6037 15.2142C98.2672 15.2142 97.0263 15.5961 96.0234 16.2643V15.6915H92.2052V31.4427H96.0234V22.3261C96.0234 19.9873 97.5037 18.0781 99.3168 18.0781C101.179 18.0781 102.658 20.035 102.658 22.3739V31.4427H106.524V22.3739H106.477C106.524 19.9873 108.004 18.0781 109.818 18.0781C111.68 18.0781 113.159 20.035 113.159 22.3739V31.4427H117.026V22.3739C117.026 18.4599 113.923 15.2142 110.104 15.2142ZM128.502 31.92C131.699 31.92 134.515 30.1063 135.899 27.3856H131.747C130.888 28.4357 129.742 29.0562 128.502 29.0562C126.401 29.0562 124.635 27.3379 124.11 24.9991H132.845H136.711C136.807 24.5695 136.854 24.0922 136.854 23.5672C136.854 23.0898 136.807 22.6125 136.711 22.1352C136.043 18.2212 132.606 15.2142 128.502 15.2142C124.349 15.2142 120.912 18.2212 120.244 22.1352C120.148 22.6125 120.148 23.0898 120.148 23.5672C120.148 24.0922 120.148 24.5695 120.244 24.9991C120.912 28.9607 124.349 31.92 128.502 31.92ZM128.502 18.0781C130.554 18.0781 132.32 19.8441 132.845 22.1352H124.11C124.635 19.8441 126.401 18.0781 128.502 18.0781ZM151.685 23.5194C150.396 22.6602 148.63 22.1829 146.721 22.1829C145.003 22.1829 143.618 21.2283 143.618 20.1305C143.618 19.0327 145.003 18.1258 146.721 18.1258C148.391 18.1258 149.823 19.0327 149.823 20.1305H153.642C153.642 17.4099 150.539 15.262 146.721 15.262C142.855 15.262 139.8 17.4099 139.8 20.1305C139.8 21.4669 140.516 22.6602 141.71 23.5194C142.998 24.474 144.764 25.0468 146.721 25.0468C148.535 25.0468 150.062 25.9537 150.062 27.0515C150.062 28.1493 148.535 29.1039 146.721 29.1039C144.86 29.1039 143.38 28.1493 143.38 27.0515H139.561C139.561 29.7721 142.759 31.9677 146.721 31.9677C150.635 31.9677 153.88 29.7721 153.88 27.0515C153.88 25.6673 153.021 24.4263 151.685 23.5194ZM162.896 2.8042H159.077V15.7393H156.691V18.6031H159.077V25.9537C159.077 29.2948 161.702 31.92 165.044 31.92H166.476V29.0562H165.044C163.85 29.0562 162.896 27.672 162.896 25.9537V18.6031H167.43V15.7393H162.896V2.8042ZM177.65 31.92C180.849 31.92 183.665 30.1063 185.049 27.3856H180.896C180.037 28.4357 178.892 29.0562 177.65 29.0562C175.55 29.0562 173.785 27.3379 173.259 24.9991H181.994H185.861C185.956 24.5695 186.004 24.0922 186.004 23.5672C186.004 23.0898 185.956 22.6125 185.861 22.1352C185.192 18.2212 181.756 15.2142 177.65 15.2142C173.498 15.2142 170.061 18.2212 169.393 22.1352C169.298 22.6125 169.298 23.0898 169.298 23.5672C169.298 24.0922 169.298 24.5695 169.393 24.9991C170.061 28.9607 173.498 31.92 177.65 31.92ZM177.65 18.0781C179.703 18.0781 181.469 19.8441 181.994 22.1352H173.259C173.785 19.8441 175.55 18.0781 177.65 18.0781ZM192.948 23.5672C192.948 20.5601 194.953 18.0781 197.483 18.0781C197.769 18.0781 198.104 18.1258 198.437 18.2213V15.262C198.199 15.262 197.96 15.2142 197.721 15.2142C195.908 15.2142 194.285 15.8348 192.948 16.8371V15.7393H189.13V31.4427H192.948V23.5672Z" fill="#4F3895"/>
</svg>
