<svg width="200" height="50" viewBox="0 0 200 50" fill="none" xmlns="http://www.w3.org/2000/svg">
<g clip-path="url(#clip0_252_12)">
<path fill-rule="evenodd" clip-rule="evenodd" d="M73.9168 34.55C74.2013 34.8452 74.343 35.2262 74.343 35.6917C74.343 36.156 74.1549 36.5369 73.7787 36.8345C73.4025 37.1298 72.9168 37.2774 72.3239 37.2774H71.7073C70.6319 37.2891 69.5734 37.0094 68.6442 36.4679C67.734 35.943 66.9828 35.1815 66.4704 34.2643C65.9466 33.3333 65.6835 32.2869 65.6835 31.1226V23.2869H64.1085C63.6299 23.2869 63.2418 23.1595 62.9454 22.906C62.8039 22.7913 62.6903 22.646 62.6132 22.481C62.536 22.316 62.4974 22.1357 62.5001 21.9536C62.5001 21.531 62.6489 21.1929 62.9454 20.9393C63.2418 20.6857 63.6299 20.5583 64.1085 20.5583H65.6835V15.9905C65.6835 15.525 65.843 15.144 66.1632 14.8476C66.4823 14.5512 66.893 14.4036 67.3954 14.4036C67.8966 14.4036 68.3073 14.5512 68.6275 14.8476C68.9466 15.144 69.1061 15.525 69.1061 15.9905V20.5583H72.0156C72.4954 20.5583 72.8835 20.6857 73.1799 20.9393C73.4775 21.1929 73.6251 21.531 73.6251 21.9548C73.6251 22.3357 73.4763 22.6524 73.1799 22.9071C72.8823 23.1595 72.4954 23.2869 72.0156 23.2869H69.1073V31.1226C69.1073 31.969 69.3585 32.6774 69.8609 33.2488C70.3632 33.8202 70.9799 34.106 71.7085 34.106H72.8728C73.2835 34.106 73.6311 34.2536 73.9168 34.55V34.55ZM91.5442 20.9548C92.9346 21.6936 94.1038 22.7884 94.9323 24.1274C95.7656 25.4702 96.1823 26.9667 96.1823 28.6167V35.6917C96.1823 36.156 96.0156 36.5429 95.6859 36.85C95.3549 37.156 94.9382 37.3095 94.4359 37.3095C93.9347 37.3095 93.518 37.156 93.1859 36.85C93.0249 36.7039 92.8973 36.5248 92.8118 36.3249C92.7264 36.125 92.685 35.909 92.6906 35.6917V34.5179C91.8876 35.4302 90.8945 36.1556 89.7811 36.6429C88.6167 37.1555 87.3568 37.4152 86.0847 37.4048C84.4418 37.4048 82.9525 37.0238 81.6168 36.2619C80.2986 35.5173 79.2096 34.4259 78.468 33.106C77.7037 31.7631 77.3216 30.2667 77.3216 28.6179C77.3216 26.9667 77.7323 25.4702 78.5537 24.1274C79.3751 22.7845 80.5109 21.7274 81.9597 20.9548C83.4085 20.1833 85.012 19.7964 86.7692 19.7964C88.5263 19.7964 90.118 20.1833 91.543 20.9548H91.5442ZM89.8656 33.7726C90.7701 33.2744 91.522 32.5394 92.0406 31.6464C92.5644 30.7476 92.8275 29.7381 92.8275 28.6167C92.8275 27.4952 92.5656 26.481 92.0406 25.5714C91.526 24.6715 90.7741 23.9302 89.8668 23.4286C88.943 22.9119 87.9097 22.6524 86.7692 22.6524C85.6275 22.6524 84.5954 22.9119 83.6716 23.4298C82.7621 23.9337 82.0054 24.6736 81.4811 25.5714C80.9442 26.481 80.6763 27.4952 80.6763 28.6167C80.6763 29.7381 80.9442 30.7476 81.4799 31.6464C82.0077 32.5375 82.7639 33.2715 83.6704 33.7726C84.5954 34.2905 85.6275 34.55 86.7692 34.55C87.9097 34.55 88.943 34.2905 89.8668 33.7726H89.8656ZM103.473 36.7381C102.104 36.294 101.032 35.7131 100.255 34.994C100.115 34.8716 100.002 34.7205 99.9257 34.5508C99.8491 34.3811 99.8099 34.1969 99.8109 34.0107C99.8109 33.5024 100.038 33.0905 100.495 32.7726C100.929 32.4762 101.329 32.3286 101.693 32.3286C102.149 32.3286 102.583 32.519 102.994 32.9C103.428 33.344 104.078 33.7298 104.944 34.0583C105.831 34.3898 106.771 34.5564 107.718 34.55C109.018 34.55 110.028 34.3476 110.747 33.9464C111.466 33.5452 111.825 33.006 111.825 32.3286C111.825 31.6738 111.472 31.1286 110.763 30.6952C110.056 30.2607 108.858 29.8964 107.169 29.6C102.788 28.8179 100.598 27.1476 100.598 24.5881C100.598 23.5512 100.929 22.6738 101.591 21.9548C102.253 21.2345 103.119 20.6952 104.192 20.3357C105.263 19.9762 106.406 19.7964 107.614 19.7964C109.098 19.7964 110.428 20.019 111.603 20.4631C112.778 20.9071 113.707 21.5202 114.392 22.3036C114.689 22.6417 114.837 22.9798 114.837 23.319C114.837 23.6786 114.643 24.006 114.255 24.3024C114.005 24.4714 113.685 24.556 113.297 24.556C112.705 24.5567 112.134 24.3426 111.688 23.9536C111.16 23.4903 110.542 23.1392 109.874 22.9214C109.235 22.7214 108.458 22.6202 107.547 22.6202C106.497 22.6202 105.635 22.7845 104.962 23.1119C104.288 23.4405 103.953 23.9 103.953 24.4929C103.953 24.9155 104.067 25.269 104.294 25.5548C104.523 25.8405 104.956 26.1048 105.595 26.3488C106.235 26.5917 107.158 26.8298 108.368 27.0631C110.856 27.5274 112.618 28.1726 113.656 28.9976C114.694 29.8226 115.213 30.8905 115.213 32.2012C115.213 33.175 114.928 34.0583 114.358 34.8512C113.787 35.644 112.949 36.2679 111.842 36.7226C110.735 37.1774 109.406 37.4048 107.854 37.4048C106.303 37.4048 104.842 37.1821 103.473 36.7381V36.7381ZM133.8 35.9452C133.8 36.4107 133.595 36.8024 133.185 37.119C132.871 37.363 132.486 37.4969 132.088 37.5C131.587 37.5 131.176 37.3095 130.856 36.9286L124.353 29.4738L122.642 30.869V35.7238C122.642 36.1881 122.487 36.5643 122.18 36.85C121.872 37.1357 121.467 37.2786 120.964 37.2786C120.462 37.2786 120.057 37.1357 119.749 36.85C119.441 36.5643 119.287 36.1881 119.287 35.7238V14.0548C119.287 13.5893 119.441 13.2143 119.749 12.9286C120.057 12.6429 120.462 12.5 120.964 12.5C121.467 12.5 121.872 12.6429 122.18 12.9286C122.487 13.2143 122.642 13.5893 122.642 14.0548V26.9667L130.96 20.0821C131.256 19.8083 131.61 19.6702 132.02 19.6702C132.499 19.6702 132.887 19.8393 133.185 20.1774C133.481 20.4524 133.629 20.781 133.629 21.1607C133.629 21.6048 133.447 21.9655 133.081 22.2405L126.783 27.4429L133.424 34.994C133.675 35.2476 133.8 35.5655 133.8 35.9464V35.9452ZM149.974 20.9548C151.365 21.6933 152.534 22.7882 153.362 24.1274C154.195 25.4702 154.612 26.9667 154.612 28.6167V35.6917C154.612 36.156 154.447 36.5429 154.116 36.85C153.785 37.156 153.368 37.3095 152.866 37.3095C152.364 37.3095 151.948 37.156 151.617 36.85C151.456 36.704 151.328 36.5249 151.242 36.325C151.156 36.1251 151.115 35.9091 151.12 35.6917V34.5179C150.317 35.4301 149.324 36.1554 148.211 36.6429C147.047 37.1556 145.787 37.4153 144.514 37.4048C142.872 37.4048 141.382 37.0238 140.047 36.2619C138.728 35.5173 137.639 34.4258 136.898 33.106C136.133 31.7631 135.751 30.2667 135.751 28.6179C135.751 26.9667 136.162 25.4702 136.983 24.1274C137.805 22.7845 138.941 21.7274 140.389 20.9548C141.838 20.1833 143.442 19.7964 145.199 19.7964C146.956 19.7964 148.548 20.1833 149.974 20.9548V20.9548ZM148.297 33.7726C149.201 33.274 149.952 32.5391 150.47 31.6464C150.995 30.7476 151.257 29.7381 151.257 28.6167C151.257 27.4952 150.995 26.481 150.47 25.5714C149.956 24.6716 149.204 23.9303 148.297 23.4286C147.373 22.9119 146.339 22.6524 145.199 22.6524C144.057 22.6524 143.025 22.9119 142.101 23.4298C141.191 23.9336 140.434 24.6734 139.91 25.5714C139.374 26.481 139.106 27.4952 139.106 28.6167C139.106 29.7381 139.374 30.7476 139.91 31.6464C140.438 32.5377 141.194 33.2717 142.101 33.7726C143.025 34.2905 144.057 34.55 145.199 34.55C146.339 34.55 147.373 34.2905 148.297 33.7726V33.7726ZM176.895 12.944C177.214 13.2405 177.374 13.6321 177.374 14.1179V28.5845C177.374 30.2345 176.958 31.731 176.125 33.0738C175.296 34.4128 174.127 35.5076 172.736 36.2464C171.31 37.019 169.718 37.4048 167.961 37.4048C166.204 37.4048 164.601 37.019 163.153 36.2464C161.703 35.475 160.568 34.4167 159.747 33.0738C158.925 31.731 158.514 30.2345 158.514 28.5857C158.514 26.9357 158.897 25.4393 159.661 24.0964C160.402 22.7762 161.491 21.6843 162.81 20.9393C164.144 20.1774 165.633 19.7964 167.276 19.7964C168.6 19.7964 169.832 20.0512 170.974 20.5583C172.087 21.0461 173.08 21.7719 173.883 22.6845V14.1179C173.883 13.631 174.049 13.2405 174.38 12.944C174.71 12.6476 175.126 12.5 175.629 12.5C176.154 12.5 176.576 12.6476 176.895 12.944V12.944ZM171.058 33.7726C171.966 33.2713 172.718 32.5299 173.232 31.6298C173.757 30.7214 174.02 29.706 174.02 28.5845C174.02 27.4643 173.757 26.4536 173.232 25.5548C172.714 24.6623 171.962 23.9277 171.058 23.4298C170.135 22.9107 169.103 22.6524 167.961 22.6524C166.82 22.6524 165.788 22.9119 164.863 23.4298C163.957 23.9308 163.201 24.6643 162.673 25.5548C162.137 26.4536 161.868 27.4643 161.868 28.5845C161.868 29.706 162.137 30.7214 162.673 31.631C163.197 32.5287 163.954 33.2685 164.863 33.7726C165.788 34.2905 166.82 34.55 167.961 34.55C169.103 34.55 170.135 34.2905 171.058 33.7726ZM199.555 29.331C199.258 29.5952 198.882 29.7274 198.425 29.7274H185.418C185.669 31.2083 186.394 32.4024 187.592 33.3119C188.789 34.2214 190.256 34.6762 191.991 34.6762C192.717 34.6692 193.439 34.5516 194.13 34.3274C194.872 34.0952 195.482 33.8095 195.961 33.4702C196.29 33.2348 196.686 33.1124 197.091 33.1214C197.524 33.1214 197.867 33.2286 198.118 33.4393C198.529 33.756 198.733 34.1155 198.733 34.5179C198.733 34.8988 198.551 35.2155 198.186 35.4702C197.41 36.0417 196.447 36.506 195.294 36.8655C194.141 37.225 193.041 37.4048 191.991 37.4048C190.119 37.4048 188.442 37.0298 186.958 36.2786C185.475 35.5286 184.317 34.4857 183.485 33.1536C182.651 31.8202 182.235 30.3083 182.235 28.6179C182.235 26.925 182.629 25.4071 183.416 24.0643C184.195 22.7297 185.334 21.6414 186.703 20.9238C188.105 20.1726 189.697 19.7964 191.478 19.7964C193.235 19.7964 194.751 20.156 196.03 20.875C197.284 21.5707 198.307 22.6186 198.973 23.8893C199.657 25.1798 200 26.6607 200 28.331C200 28.7333 199.851 29.0667 199.555 29.331V29.331ZM187.42 23.7952C186.382 24.6405 185.726 25.7714 185.453 27.1881H196.851C196.645 25.7714 196.075 24.6405 195.139 23.7952C194.204 22.9488 192.983 22.525 191.478 22.525C189.811 22.525 188.46 22.9488 187.42 23.794V23.7952Z" fill="black"/>
<mask id="mask0_252_12" style="mask-type:alpha" maskUnits="userSpaceOnUse" x="0" y="0" width="50" height="50">
<path fill-rule="evenodd" clip-rule="evenodd" d="M25 50C38.8071 50 50 38.8071 50 25C50 11.1929 38.8071 0 25 0C11.1929 0 0 11.1929 0 25C0 38.8071 11.1929 50 25 50Z" fill="white"/>
</mask>
<g mask="url(#mask0_252_12)">
<path d="M57.9924 -1.32373H-5.14453V37.206H57.9924V-1.32373V-1.32373Z" fill="#F64942"/>
<path d="M11.0134 40.8463C7.811 34.5678 10.9003 26.9654 19.255 24.9225C43.5253 20.9582 39.886 13.4416 47.3205 10.7618C61.1515 5.77609 57.6539 23.1285 54.8717 27.9797C52.0896 32.832 58.6789 42.0356 49.2348 42.7059C43.2908 43.1261 41.5586 39.7773 31.0812 44.1011C25.6931 46.3249 25.3789 45.8332 19.7836 44.0297L14.9955 41.6094L11.0134 40.8475V40.8463Z" fill="#F4CE45"/>
<path d="M23.6711 -4.83333C17.2187 -3.97262 -15.8027 2.97619 -18.1562 4.05119L-12.4134 36.6464C-8.96577 36.3131 -2.56816 39.7452 -2.56816 34.9107C-2.56816 30.2202 -1.61696 28.2202 1.61875 22.5976C6.37351 14.3381 16.8997 14.4762 20.5664 14.2964C29.2414 13.8726 38.7318 11.0964 43.5807 4.05357C60.1973 -20.0774 44.4295 -10.5571 23.6711 -4.83333V-4.83333Z" fill="#5B95BF"/>
<path d="M16.7027 33.0203C9.97649 33.0405 2.88363 35.1143 -3.59375 37.5465L-1.05089 65.0857C16.5765 62.8798 48.261 57.6072 50.2312 54.2655C52.5158 50.3917 49.2967 47.8072 55.9348 44.2774C61.2443 41.4548 67.1253 30.2893 54.6027 30.1643C47.6682 30.2203 45.8932 31.6584 40.4848 33.6881C31.5705 37.0322 21.8562 33.0048 16.7027 33.0203V33.0203Z" fill="#EF90A4"/>
<path fill-rule="evenodd" clip-rule="evenodd" d="M25.2008 8.08813C26.0579 8.08813 26.7936 8.6048 27.1162 9.3429C27.1311 9.37693 27.1556 9.40588 27.1867 9.42619C27.2178 9.44649 27.2541 9.45726 27.2912 9.45718C27.318 9.45735 27.3446 9.45157 27.3688 9.44025C27.3931 9.42892 27.4146 9.41234 27.4317 9.39171C27.6875 9.08672 28.025 8.86093 28.4045 8.74075C28.7839 8.62058 29.1898 8.611 29.5746 8.71313C29.9682 8.81856 30.3224 9.03679 30.5936 9.34096C30.8647 9.64512 31.041 10.0219 31.1008 10.425C31.1059 10.4563 31.119 10.4858 31.1386 10.5108C31.1582 10.5357 31.1839 10.5552 31.2131 10.5676C31.2423 10.58 31.2742 10.5847 31.3058 10.5814C31.3373 10.5782 31.3676 10.5669 31.3936 10.5488C31.7462 10.3016 32.1665 10.169 32.5972 10.1691C32.8914 10.1697 33.1822 10.2324 33.4505 10.3531C33.7188 10.4739 33.9586 10.6499 34.1541 10.8697C34.3497 11.0896 34.4966 11.3482 34.5852 11.6287C34.6739 11.9093 34.7023 12.2054 34.6686 12.4977C34.6659 12.529 34.6711 12.5606 34.6837 12.5895C34.6963 12.6184 34.7159 12.6436 34.7407 12.663C34.7655 12.6824 34.7948 12.6953 34.8259 12.7005C34.8569 12.7057 34.8888 12.7031 34.9186 12.6929C35.1508 12.6096 35.3948 12.5667 35.6377 12.5667C35.9781 12.5672 36.3133 12.6509 36.6141 12.8104C36.9149 12.97 37.1722 13.2006 37.3635 13.4822C37.5549 13.7638 37.6746 14.0879 37.7122 14.4263C37.7498 14.7646 37.7042 15.1071 37.5793 15.4238C37.5688 15.4534 37.5658 15.4851 37.5706 15.516C37.5753 15.547 37.5877 15.5763 37.6066 15.6014C37.6255 15.6264 37.6503 15.6463 37.6787 15.6594C37.7072 15.6725 37.7385 15.6782 37.7698 15.6762C38.1713 15.6396 38.5747 15.7201 38.9314 15.9079C39.2882 16.0956 39.5829 16.3827 39.7799 16.7344C39.977 17.0861 40.0679 17.4873 40.0419 17.8896C40.0158 18.2918 39.8737 18.6779 39.6329 19.0012C39.6146 19.0271 39.6031 19.0571 39.5994 19.0886C39.5958 19.1201 39.6 19.1519 39.6119 19.1813C39.6237 19.2107 39.6428 19.2366 39.6672 19.2568C39.6917 19.2769 39.7208 19.2905 39.752 19.2965C40.1487 19.3657 40.517 19.5482 40.8125 19.8219C41.108 20.0956 41.3181 20.4489 41.4175 20.8392C41.5169 21.2295 41.5013 21.6402 41.3727 22.0219C41.244 22.4036 41.0078 22.74 40.6924 22.9905C40.6682 23.0107 40.6493 23.0367 40.6377 23.0661C40.626 23.0954 40.6219 23.1272 40.6257 23.1586C40.6295 23.19 40.6411 23.2199 40.6594 23.2456C40.6777 23.2714 40.7021 23.2921 40.7305 23.306C41.0954 23.4756 41.4035 23.7469 41.6178 24.0874C41.8322 24.4279 41.9437 24.8231 41.9389 25.2254C41.9341 25.6277 41.8133 26.0201 41.5909 26.3554C41.3685 26.6907 41.0541 26.9546 40.6853 27.1155C40.5591 27.1715 40.5305 27.3429 40.6365 27.4322C40.9454 27.6906 41.173 28.0328 41.292 28.4176C41.4109 28.8024 41.4161 29.2134 41.3069 29.601C41.1978 29.9887 40.9788 30.3366 40.6766 30.6027C40.3743 30.8689 40.0015 31.042 39.6031 31.1012C39.5719 31.1065 39.5425 31.1196 39.5176 31.1392C39.4927 31.1588 39.4732 31.1844 39.4607 31.2135C39.4483 31.2427 39.4434 31.2745 39.4464 31.306C39.4494 31.3376 39.4604 31.3679 39.4781 31.3941C39.7109 31.7251 39.8425 32.1165 39.8571 32.5209C39.8716 32.9253 39.7684 33.3251 39.56 33.672C39.3516 34.0188 39.0469 34.2977 38.6831 34.4747C38.3192 34.6517 37.9118 34.7192 37.5103 34.6691C37.4804 34.6697 37.4512 34.6774 37.4248 34.6914C37.3985 34.7055 37.3759 34.7256 37.3588 34.7501C37.3418 34.7746 37.3307 34.8028 37.3267 34.8324C37.3226 34.8619 37.3255 34.8921 37.3353 34.9203C37.4742 35.2986 37.5006 35.709 37.4114 36.1021C37.3222 36.4951 37.1212 36.8539 36.8326 37.1352C36.544 37.4165 36.1801 37.6083 35.785 37.6874C35.3898 37.7665 34.9802 37.7295 34.6055 37.581C34.5843 37.5728 34.5616 37.5688 34.5389 37.5691C34.5131 37.5695 34.4877 37.5752 34.4642 37.5857C34.4407 37.5962 34.4196 37.6114 34.4021 37.6303C34.3847 37.6492 34.3712 37.6715 34.3626 37.6957C34.354 37.72 34.3503 37.7458 34.352 37.7715C34.3878 38.1727 34.3068 38.5757 34.1189 38.9319C33.931 39.2882 33.6441 39.5826 33.2927 39.7796C32.9414 39.9765 32.5406 40.0678 32.1386 40.0423C31.7366 40.0168 31.3506 39.8756 31.027 39.6358C30.996 39.6126 30.9584 39.6001 30.9198 39.6C30.8753 39.5998 30.8322 39.6152 30.7978 39.6434C30.7634 39.6717 30.7401 39.7111 30.7317 39.7548C30.6626 40.1517 30.4801 40.5201 30.2063 40.8157C29.9325 41.1112 29.579 41.3212 29.1885 41.4204C28.7981 41.5195 28.3872 41.5036 28.0056 41.3745C27.6239 41.2454 27.2878 41.0087 27.0377 40.6929C27.0205 40.6716 26.9987 40.6544 26.974 40.6427C26.9493 40.6309 26.9222 40.6249 26.8948 40.625C26.8588 40.6243 26.8233 40.6341 26.7927 40.6531C26.762 40.6721 26.7376 40.6996 26.7222 40.7322C26.5526 41.097 26.2812 41.4051 25.9408 41.6195C25.6003 41.8339 25.2051 41.9454 24.8028 41.9406C24.4005 41.9358 24.0081 41.815 23.6728 41.5926C23.3375 41.3702 23.0736 41.0557 22.9127 40.6869C22.8978 40.6529 22.8733 40.624 22.8422 40.6037C22.8112 40.5833 22.7748 40.5726 22.7377 40.5727C22.711 40.5723 22.6845 40.5779 22.6602 40.5891C22.6359 40.6002 22.6144 40.6165 22.5972 40.6369C22.3415 40.942 22.0041 41.1679 21.6245 41.2881C21.245 41.4083 20.8391 41.4178 20.4543 41.3155C20.0609 41.2102 19.7068 40.9921 19.4356 40.6882C19.1645 40.3842 18.9881 40.0077 18.9281 39.6048C18.9231 39.5734 18.9102 39.5438 18.8907 39.5187C18.8711 39.4936 18.8455 39.4739 18.8162 39.4614C18.787 39.4489 18.755 39.4441 18.7234 39.4473C18.6917 39.4505 18.6614 39.4617 18.6353 39.4798C18.3101 39.7102 17.9255 39.8421 17.5274 39.8599C17.1292 39.8776 16.7344 39.7804 16.3901 39.5798C16.0373 39.3761 15.7518 39.0738 15.5686 38.71C15.3855 38.3462 15.3126 37.9368 15.3591 37.5322C15.362 37.5007 15.357 37.469 15.3445 37.4399C15.332 37.4109 15.3124 37.3855 15.2876 37.3659C15.2627 37.3464 15.2333 37.3334 15.2022 37.3281C15.171 37.3229 15.139 37.3255 15.1091 37.3358C14.7352 37.4738 14.3296 37.5016 13.9404 37.4157C13.5512 37.3298 13.1949 37.1338 12.9139 36.8512C12.6262 36.5629 12.4289 36.1968 12.3465 35.7979C12.264 35.3991 12.2998 34.9848 12.4496 34.606C12.4603 34.5764 12.4636 34.5446 12.4589 34.5134C12.4543 34.4823 12.4419 34.4528 12.423 34.4276C12.4041 34.4024 12.3792 34.3824 12.3506 34.3692C12.322 34.3561 12.2905 34.3503 12.2591 34.3524C11.8576 34.389 11.4542 34.3086 11.0975 34.1208C10.7407 33.933 10.4461 33.6459 10.249 33.2943C10.0519 32.9426 9.96096 32.5414 9.98705 32.1391C10.0131 31.7368 10.1552 31.3507 10.396 31.0274C10.4143 31.0016 10.4258 30.9715 10.4295 30.9401C10.4332 30.9086 10.4289 30.8767 10.417 30.8473C10.4052 30.8179 10.3861 30.792 10.3617 30.7719C10.3372 30.7518 10.3081 30.7381 10.277 30.7322C9.88017 30.6629 9.51186 30.4805 9.21637 30.2068C8.92087 29.9331 8.71079 29.5798 8.61142 29.1895C8.51205 28.7991 8.52762 28.3884 8.65625 28.0067C8.78489 27.625 9.02111 27.2887 9.33648 27.0381C9.36075 27.0179 9.37956 26.9919 9.39122 26.9626C9.40288 26.9332 9.407 26.9014 9.40321 26.87C9.39942 26.8387 9.38785 26.8088 9.36954 26.783C9.35123 26.7573 9.32677 26.7365 9.29838 26.7227C8.93354 26.553 8.62542 26.2817 8.41106 25.9412C8.1967 25.6007 8.08521 25.2056 8.08999 24.8033C8.09477 24.401 8.21561 24.0086 8.438 23.6733C8.66038 23.338 8.97485 23.074 9.34362 22.9131C9.37275 22.9003 9.39819 22.8804 9.41757 22.8552C9.43696 22.8299 9.44967 22.8002 9.45454 22.7688C9.4594 22.7373 9.45626 22.7052 9.44541 22.6753C9.43455 22.6454 9.41633 22.6187 9.39243 22.5977C9.08314 22.3393 8.85517 21.997 8.73598 21.6121C8.6168 21.2271 8.6115 20.8159 8.72071 20.428C8.82993 20.04 9.049 19.692 9.35152 19.4258C9.65405 19.1595 10.0271 18.9865 10.4258 18.9274C10.4568 18.922 10.486 18.909 10.5108 18.8894C10.5355 18.8699 10.555 18.8445 10.5674 18.8155C10.5798 18.7865 10.5848 18.7549 10.5819 18.7235C10.579 18.6921 10.5683 18.662 10.5508 18.6358C10.3176 18.3048 10.1857 17.9132 10.171 17.5086C10.1562 17.104 10.2594 16.7039 10.4678 16.3568C10.6763 16.0098 10.9811 15.7308 11.3452 15.5537C11.7092 15.3767 12.1169 15.3092 12.5186 15.3596C12.5484 15.3592 12.5777 15.3517 12.604 15.3377C12.6304 15.3238 12.653 15.3038 12.6701 15.2794C12.6872 15.2549 12.6982 15.2268 12.7023 15.1973C12.7064 15.1678 12.7034 15.1377 12.6936 15.1096C12.5553 14.7313 12.5293 14.3211 12.6187 13.9283C12.7081 13.5356 12.9091 13.177 13.1975 12.8959C13.486 12.6147 13.8495 12.423 14.2444 12.3437C14.6393 12.2643 15.0488 12.3009 15.4234 12.4488C15.453 12.4593 15.4847 12.4623 15.5157 12.4575C15.5467 12.4527 15.5761 12.4404 15.6012 12.4215C15.6263 12.4027 15.6463 12.3779 15.6595 12.3495C15.6728 12.321 15.6787 12.2897 15.677 12.2584C15.6412 11.8572 15.7221 11.4542 15.91 11.0979C16.0979 10.7416 16.3848 10.4473 16.7362 10.2503C17.0875 10.0533 17.4883 9.96206 17.8903 9.98757C18.2923 10.0131 18.6783 10.1543 19.002 10.3941C19.0353 10.4179 19.0734 10.4298 19.1091 10.4298C19.1536 10.43 19.1968 10.4147 19.2311 10.3864C19.2655 10.3581 19.2889 10.3187 19.2972 10.275C19.3666 9.87835 19.5492 9.51018 19.823 9.21483C20.0967 8.91949 20.45 8.70956 20.8403 8.61032C21.2306 8.51108 21.6413 8.52676 22.0229 8.65546C22.4045 8.78416 22.7408 9.0204 22.9912 9.33575C23.027 9.38337 23.0817 9.4048 23.1341 9.4048C23.1701 9.40534 23.2055 9.39553 23.2361 9.37654C23.2667 9.35755 23.2912 9.33017 23.3067 9.29766C23.64 8.58337 24.3615 8.08813 25.2008 8.08813V8.08813Z" fill="white"/>
<path fill-rule="evenodd" clip-rule="evenodd" d="M32.7826 33.2047C30.8993 33.2047 31.0469 30.5464 32.7826 30.5464C34.5183 30.5464 34.666 33.2047 32.7826 33.2047ZM17.2207 33.2047C15.3374 33.2047 15.485 30.5464 17.2207 30.5464C18.9564 30.5464 19.1041 33.2047 17.2207 33.2047ZM38.4731 23.3833H37.835C37.2922 23.3832 36.761 23.226 36.3056 22.9307C35.8501 22.6354 35.4899 22.2145 35.2683 21.719C35.0463 22.214 34.6859 22.6342 34.2305 22.929C33.7751 23.2238 33.2442 23.3807 32.7017 23.3807C32.1592 23.3807 31.6283 23.2238 31.1729 22.929C30.7175 22.6342 30.3571 22.214 30.135 21.719C29.9128 22.2136 29.5524 22.6335 29.0971 22.9281C28.6419 23.2226 28.1112 23.3794 27.5689 23.3794C27.0267 23.3794 26.496 23.2226 26.0407 22.9281C25.5855 22.6335 25.2251 22.2136 25.0029 21.719C24.7808 22.214 24.4204 22.6342 23.965 22.929C23.5096 23.2238 22.9787 23.3807 22.4362 23.3807C21.8937 23.3807 21.3628 23.2238 20.9074 22.929C20.452 22.6342 20.0916 22.214 19.8695 21.719C19.6479 22.2144 19.2876 22.635 18.8321 22.9302C18.3767 23.2254 17.8456 23.3824 17.3029 23.3824C16.7602 23.3824 16.229 23.2254 15.7736 22.9302C15.3182 22.635 14.9579 22.2144 14.7362 21.719C14.5145 22.2143 14.1542 22.6349 13.6987 22.93C13.2433 23.2251 12.7122 23.3821 12.1695 23.3821H11.5386C10.5826 24.4119 11.1898 25.2821 13.5529 25.2821V30.569C13.5529 35.538 19.2743 38.0226 24.9957 38.0226C30.7183 38.0226 36.4398 35.538 36.4398 30.5702V25.2821C38.8052 25.2821 39.4219 24.413 38.4731 23.3821V23.3833Z" fill="black"/>
<path fill-rule="evenodd" clip-rule="evenodd" d="M25.1845 6.37256C24.3464 6.37256 23.544 6.63446 22.8785 7.09756C22.0915 6.79119 21.2285 6.73848 20.4101 6.94682C19.5917 7.15515 18.8589 7.6141 18.3142 8.25946C17.4757 8.16745 16.6294 8.33964 15.8934 8.75199C15.1575 9.16434 14.5688 9.79626 14.2095 10.5595C13.3749 10.6876 12.6014 11.0734 11.997 11.663C11.3927 12.2526 10.9879 13.0164 10.8392 13.8476C10.0505 14.1937 9.39247 14.782 8.96065 15.5273C8.54876 16.243 8.36557 17.0676 8.43565 17.8904C7.77689 18.4179 7.29965 19.1382 7.07079 19.9505C6.84194 20.7628 6.87295 21.6264 7.15946 22.4202C6.66017 23.1002 6.386 23.9194 6.37532 24.763C6.36465 25.6066 6.61801 26.4325 7.09994 27.1249C6.7934 27.9111 6.74037 28.7735 6.94829 29.5912C7.15621 30.409 7.61466 31.1414 8.25946 31.6857C8.16648 32.5248 8.33837 33.3719 8.75103 34.1085C9.1637 34.845 9.79646 35.4339 10.5607 35.7928C10.6882 36.6274 11.0735 37.4013 11.6626 38.006C12.2518 38.6108 13.0154 39.0162 13.8464 39.1654C14.1857 39.9382 14.7583 40.5855 15.4839 41.0165C16.2095 41.4475 17.0519 41.6407 17.8928 41.569C18.2719 42.0422 18.7526 42.4241 19.2994 42.6865C19.8461 42.9488 20.4447 43.0848 21.0511 43.0845C21.5261 43.0845 21.9892 43.0011 22.4249 42.844C23.1044 43.3421 23.9224 43.6156 24.7648 43.6263C25.6072 43.6369 26.4319 43.3843 27.1237 42.9035C27.9281 43.2172 28.8116 43.2652 29.6452 43.0404C30.4422 42.8258 31.1546 42.3726 31.6868 41.7416C32.5441 41.8392 33.4101 41.6576 34.1559 41.2237C34.8699 40.8102 35.4406 40.1884 35.7916 39.4416C36.6446 39.3128 37.4335 38.913 38.0416 38.3011C38.6368 37.7071 39.0178 36.9523 39.1618 36.1535C39.9507 35.807 40.6087 35.2182 41.0404 34.4726C41.4526 33.7573 41.6362 32.9332 41.5666 32.1107C42.2255 31.5832 42.7027 30.8628 42.9313 30.0505C43.16 29.2381 43.1286 28.3745 42.8416 27.5809C43.341 26.9006 43.6152 26.0813 43.6259 25.2375C43.6366 24.3936 43.3832 23.5676 42.9011 22.8749C43.207 22.0889 43.2597 21.2269 43.0518 20.4094C42.8439 19.5919 42.3859 18.8598 41.7416 18.3154C41.8352 17.4764 41.6638 16.6291 41.2512 15.8924C40.8387 15.1558 40.2059 14.5669 39.4416 14.2083C39.3114 13.356 38.9122 12.5677 38.3023 11.9583C37.719 11.372 36.9691 10.9799 36.1547 10.8357C35.8157 10.0625 35.2432 9.41493 34.5175 8.98366C33.7919 8.55239 32.9494 8.35909 32.1083 8.43089C31.5803 7.77244 30.8596 7.29562 30.0471 7.0672C29.2346 6.83878 28.3711 6.87021 27.5773 7.15708C26.8835 6.64758 26.0452 6.37274 25.1845 6.37256V6.37256ZM25.1845 8.36899C26.0261 8.36899 26.7487 8.87732 27.0654 9.60232C27.0805 9.63572 27.105 9.66405 27.1358 9.6839C27.1666 9.70375 27.2026 9.71428 27.2392 9.71422C27.2654 9.71418 27.2912 9.7084 27.3148 9.69729C27.3385 9.68618 27.3594 9.67002 27.3761 9.64994C27.6276 9.34995 27.9594 9.12789 28.3326 9.00981C28.7059 8.89173 29.105 8.88253 29.4833 8.98327C30.2976 9.20232 30.8642 9.88089 30.9821 10.6654C30.987 10.6962 30.9997 10.7252 31.0189 10.7497C31.038 10.7743 31.0631 10.7935 31.0917 10.8058C31.1204 10.818 31.1517 10.8228 31.1826 10.8197C31.2136 10.8166 31.2433 10.8057 31.269 10.788C31.6166 10.544 32.0309 10.4142 32.4523 10.4142C32.7414 10.4147 33.027 10.4762 33.2907 10.5947C33.5543 10.7132 33.7899 10.8861 33.9821 11.102C34.1743 11.3179 34.3187 11.5719 34.4059 11.8475C34.4931 12.1231 34.5211 12.414 34.488 12.7011C34.4851 12.7322 34.49 12.7634 34.5023 12.7921C34.5146 12.8207 34.5339 12.8458 34.5585 12.865C34.583 12.8842 34.612 12.897 34.6428 12.902C34.6735 12.9071 34.7051 12.9043 34.7345 12.894C35.1017 12.7585 35.5001 12.7313 35.8823 12.8157C36.2645 12.9001 36.6144 13.0926 36.8904 13.3702C37.4868 13.9666 37.638 14.838 37.3487 15.5761C37.3379 15.6052 37.3346 15.6366 37.339 15.6673C37.3434 15.6981 37.3555 15.7272 37.3741 15.7521C37.3927 15.7769 37.4172 15.7967 37.4454 15.8097C37.4737 15.8226 37.5047 15.8283 37.5357 15.8261C37.9302 15.7899 38.3267 15.8688 38.6773 16.0532C39.0279 16.2376 39.3176 16.5197 39.5113 16.8652C39.705 17.2108 39.7944 17.6051 39.7687 18.0004C39.7431 18.3958 39.6034 18.7752 39.3666 19.0928C39.3487 19.1182 39.3375 19.1476 39.334 19.1784C39.3304 19.2092 39.3346 19.2404 39.3462 19.2692C39.3578 19.298 39.3764 19.3234 39.4004 19.3431C39.4243 19.3628 39.4528 19.3762 39.4833 19.3821C39.8732 19.4501 40.2351 19.6295 40.5254 19.8985C40.8157 20.1675 41.0221 20.5147 41.1196 20.8983C41.2171 21.2819 41.2016 21.6855 41.0749 22.0605C40.9483 22.4355 40.716 22.7659 40.4059 23.0118C40.3821 23.0317 40.3637 23.0573 40.3523 23.0861C40.3409 23.115 40.3369 23.1462 40.3407 23.177C40.3445 23.2077 40.356 23.2371 40.374 23.2623C40.392 23.2875 40.4161 23.3078 40.444 23.3214C40.8029 23.4877 41.1061 23.7543 41.3171 24.0889C41.5281 24.4236 41.6379 24.8121 41.6332 25.2076C41.6286 25.6032 41.5097 25.989 41.2909 26.3186C41.0721 26.6482 40.7627 26.9076 40.3999 27.0654C40.3711 27.0776 40.3458 27.097 40.3264 27.1217C40.3071 27.1464 40.2944 27.1756 40.2895 27.2066C40.2847 27.2376 40.2878 27.2693 40.2985 27.2988C40.3093 27.3282 40.3274 27.3544 40.3511 27.3749C40.6551 27.6287 40.8792 27.965 40.9964 28.3433C41.1136 28.7216 41.1188 29.1257 41.0114 29.5069C40.9041 29.888 40.6888 30.23 40.3914 30.4916C40.0941 30.7531 39.7274 30.9231 39.3357 30.9809C39.3052 30.9863 39.2765 30.9992 39.2523 31.0185C39.2281 31.0378 39.2091 31.0629 39.197 31.0914C39.185 31.1199 39.1802 31.151 39.1832 31.1818C39.1862 31.2126 39.1969 31.2422 39.2142 31.2678C39.4432 31.593 39.5728 31.9778 39.5871 32.3753C39.6015 32.7728 39.5 33.1659 39.2951 33.5068C39.0901 33.8477 38.7905 34.1217 38.4327 34.2955C38.0749 34.4693 37.6743 34.5353 37.2797 34.4857C37.2502 34.486 37.2212 34.4935 37.1952 34.5073C37.1691 34.5211 37.1467 34.5409 37.1298 34.5651C37.1129 34.5893 37.1021 34.6172 37.0981 34.6465C37.0942 34.6757 37.0972 34.7055 37.1071 34.7333C37.2438 35.105 37.2699 35.5084 37.1823 35.8946C37.0948 36.2809 36.8973 36.6336 36.6136 36.91C36.33 37.1865 35.9724 37.3749 35.584 37.4525C35.1956 37.5302 34.7931 37.4937 34.4249 37.3476C34.4046 37.3391 34.3827 37.3346 34.3607 37.3345C34.3352 37.3347 34.31 37.3402 34.2867 37.3505C34.2634 37.3609 34.2425 37.3759 34.2252 37.3946C34.2079 37.4133 34.1947 37.4354 34.1862 37.4595C34.1778 37.4835 34.1743 37.509 34.1761 37.5345C34.212 37.929 34.1329 38.3255 33.9483 38.676C33.7637 39.0265 33.4816 39.3161 33.136 39.5097C32.7904 39.7034 32.3961 39.7928 32.0008 39.7672C31.6055 39.7416 31.226 39.602 30.9083 39.3654C30.8781 39.3426 30.8414 39.33 30.8035 39.3297C30.7598 39.3295 30.7174 39.3446 30.6837 39.3725C30.6499 39.4003 30.6271 39.4391 30.619 39.4821C30.5509 39.872 30.3716 40.2339 30.1026 40.5242C29.8336 40.8145 29.4864 41.0209 29.1028 41.1184C28.7192 41.2159 28.3156 41.2004 27.9406 41.0738C27.5656 40.9471 27.2352 40.7148 26.9892 40.4047C26.9722 40.3836 26.9506 40.3666 26.9261 40.355C26.9015 40.3435 26.8747 40.3377 26.8476 40.338C26.8126 40.3375 26.7783 40.347 26.7485 40.3653C26.7188 40.3837 26.6949 40.4101 26.6797 40.4416C26.5129 40.7998 26.2464 41.1024 25.912 41.3129C25.5776 41.5234 25.1896 41.6329 24.7944 41.6284C24.3993 41.6239 24.0139 41.5055 23.6844 41.2874C23.3549 41.0692 23.0954 40.7607 22.9368 40.3987C22.9222 40.3651 22.8981 40.3365 22.8674 40.3164C22.8368 40.2963 22.8009 40.2856 22.7642 40.2857C22.7379 40.2854 22.7118 40.291 22.6879 40.3021C22.664 40.3132 22.6429 40.3296 22.6261 40.3499C22.3746 40.6498 22.0427 40.8718 21.6696 40.9899C21.2964 41.1079 20.8973 41.1172 20.519 41.0166C20.1328 40.9127 19.7853 40.6983 19.5193 40.3996C19.2533 40.101 19.0802 39.7312 19.0214 39.3357C19.0165 39.3047 19.0039 39.2755 18.9846 39.2508C18.9654 39.2261 18.9402 39.2067 18.9113 39.1944C18.8825 39.1822 18.851 39.1774 18.8199 39.1807C18.7887 39.1839 18.7589 39.1951 18.7333 39.213C18.3868 39.4559 17.9714 39.5857 17.5499 39.5857C17.2608 39.585 16.9751 39.5234 16.7115 39.4047C16.4479 39.2861 16.2123 39.1131 16.0201 38.8971C15.828 38.6811 15.6836 38.427 15.5964 38.1513C15.5092 37.8757 15.4812 37.5848 15.5142 37.2976C15.5167 37.2669 15.5114 37.236 15.499 37.2078C15.4866 37.1797 15.4673 37.155 15.443 37.1361C15.4187 37.1172 15.3901 37.1047 15.3597 37.0996C15.3293 37.0945 15.2981 37.0971 15.269 37.1071C14.9016 37.2427 14.503 37.2699 14.1205 37.1855C13.7381 37.1011 13.388 36.9086 13.1118 36.6309C12.8287 36.3476 12.6346 35.9878 12.5534 35.5956C12.4722 35.2035 12.5074 34.7961 12.6547 34.4237C12.6656 34.3945 12.6689 34.3631 12.6645 34.3322C12.66 34.3014 12.6478 34.2722 12.6291 34.2473C12.6103 34.2224 12.5856 34.2026 12.5572 34.1897C12.5288 34.1769 12.4977 34.1714 12.4666 34.1737C12.0723 34.2094 11.6761 34.1302 11.3258 33.9457C10.9754 33.7612 10.686 33.4792 10.4925 33.1338C10.2989 32.7884 10.2094 32.3944 10.2348 31.9993C10.2602 31.6041 10.3994 31.2248 10.6357 30.9071C10.6535 30.8817 10.6647 30.8523 10.6683 30.8215C10.6719 30.7907 10.6677 30.7595 10.656 30.7307C10.6444 30.7019 10.6258 30.6765 10.6019 30.6568C10.5779 30.6371 10.5494 30.6237 10.519 30.6178C10.1291 30.5498 9.76718 30.3704 9.47686 30.1014C9.18654 29.8324 8.9802 29.4852 8.8827 29.1016C8.7852 28.718 8.80069 28.3144 8.92731 27.9394C9.05393 27.5644 9.28628 27.234 9.59637 26.988C9.62019 26.9682 9.63868 26.9428 9.65016 26.914C9.66163 26.8852 9.66572 26.854 9.66205 26.8232C9.65838 26.7925 9.64707 26.7631 9.62915 26.7378C9.61124 26.7126 9.58728 26.6922 9.55946 26.6785C9.20087 26.512 8.89799 26.2455 8.68725 25.911C8.47651 25.5764 8.36688 25.1882 8.37153 24.7928C8.37618 24.3975 8.49492 24.0119 8.71348 23.6825C8.93203 23.353 9.24109 23.0937 9.60351 22.9357C9.72732 22.8809 9.75589 22.7118 9.65113 22.6261C9.34674 22.3724 9.1223 22.0361 9.00491 21.6576C8.88751 21.2791 8.88218 20.8748 8.98955 20.4934C9.09693 20.112 9.31242 19.7698 9.61002 19.5081C9.90761 19.2465 10.2746 19.0766 10.6666 19.019C10.697 19.0137 10.7256 19.0008 10.7498 18.9817C10.774 18.9625 10.793 18.9377 10.8052 18.9093C10.8174 18.8809 10.8223 18.85 10.8195 18.8193C10.8167 18.7885 10.8063 18.759 10.7892 18.7333C10.5599 18.408 10.43 18.0231 10.4154 17.6254C10.4009 17.2277 10.5023 16.8343 10.7073 16.4932C10.9123 16.1521 11.2121 15.878 11.5701 15.7041C11.9281 15.5303 12.3289 15.4643 12.7237 15.5142C12.8464 15.5142 12.938 15.3868 12.8952 15.2678C12.7596 14.8961 12.7343 14.4932 12.8222 14.1075C12.9102 13.7218 13.1077 13.3696 13.391 13.0935C13.6744 12.8174 14.0314 12.6289 14.4192 12.5509C14.8071 12.4728 15.2092 12.5085 15.5773 12.6535C15.5987 12.6618 15.6202 12.6654 15.6416 12.6654C15.6671 12.6652 15.6923 12.6597 15.7155 12.6493C15.7388 12.639 15.7598 12.624 15.7771 12.6053C15.7943 12.5865 15.8076 12.5645 15.816 12.5404C15.8245 12.5164 15.8279 12.4908 15.8261 12.4654C15.7908 12.0711 15.8702 11.6749 16.0549 11.3247C16.2396 10.9745 16.5217 10.6852 16.8671 10.4917C17.2125 10.2981 17.6065 10.2086 18.0017 10.234C18.3968 10.2593 18.7761 10.3984 19.094 10.6345C19.1193 10.6523 19.1488 10.6635 19.1796 10.6671C19.2104 10.6707 19.2416 10.6665 19.2704 10.6549C19.2991 10.6433 19.3245 10.6246 19.3443 10.6007C19.364 10.5768 19.3774 10.5483 19.3833 10.5178C19.4511 10.1276 19.6304 9.7654 19.8995 9.47484C20.1686 9.18427 20.516 8.97777 20.8999 8.88024C21.2837 8.78271 21.6876 8.79831 22.0627 8.92517C22.4379 9.05202 22.7683 9.28472 23.0142 9.59518C23.031 9.61638 23.0523 9.6335 23.0767 9.64526C23.101 9.65701 23.1277 9.66309 23.1547 9.66303C23.1898 9.66346 23.2242 9.65381 23.254 9.63524C23.2837 9.61667 23.3075 9.58996 23.3226 9.55827C23.6499 8.85589 24.3595 8.36899 25.1845 8.36899V8.36899Z" fill="black"/>
</g>
</g>
<defs>
<clipPath id="clip0_252_12">
<rect width="200" height="50" fill="white"/>
</clipPath>
</defs>
</svg>
