<svg width="85" height="50" viewBox="0 0 85 50" fill="none" xmlns="http://www.w3.org/2000/svg">
<path d="M84.7 12.35C84.7 5.85 79.5 0.25 73 0.25H72H61.2H21.1C17.9 0.25 14.9 1.55 12.6 3.75C10.3 6.05 9.1 9.05 9.1 12.25C9.1 13.55 9.3 14.85 9.7 16.05C7.4 16.55 5.3 17.65 3.7 19.25C1.3 21.55 0 24.85 0 28.35C0 31.95 1.3 35.15 3.7 37.55C5.3 39.05 8.2 40.95 12.5 40.95H20.8C23 40.95 25.2 40.35 27 39.25C27.3 42.05 28.6 44.65 30.6 46.55C32.8 48.65 35.8 49.85 38.9 49.85C43.4 49.85 47.5 48.25 50.9 45.25C52.7 43.65 54.2 41.75 55.5 39.45C57 40.15 58.7 40.55 60.5 40.55H61.7H73.2C79.6 40.55 84.9 35.35 84.9 28.85L84.7 12.35ZM12.6 31.55C10.7 31.55 9.6 30.55 9.6 28.55C9.6 26.45 10.7 25.45 12.6 25.45C14.5 25.45 15.6 26.45 15.6 28.55C15.6 30.55 14.5 31.55 12.6 31.55ZM33.9 31.55C33.2 31.55 32.4 31.25 31.9 30.55C30.5 28.55 27.4 24.25 27.4 24.25C27.4 24.25 24.3 28.65 22.9 30.55C22.4 31.15 21.6 31.55 20.9 31.55C19.5 31.55 18.4 30.45 18.4 29.05C18.4 28.35 18.6 27.95 18.9 27.55L24.4 20.55L19 13.95C18.6 13.45 18.5 12.95 18.5 12.45C18.5 11.05 19.6 9.95 21 9.95C21.8 9.95 22.5 10.35 23 10.95L27.3 16.85L31.6 10.95C32.1 10.35 32.8 9.95 33.6 9.95C35 9.95 36.1 11.05 36.1 12.45C36.1 13.05 36 13.45 35.6 13.95L30.2 20.55L35.7 27.55C36 27.95 36.2 28.35 36.2 29.05C36.3 30.45 35.2 31.55 33.9 31.55ZM57.1 13.35L48.6 32.65C46.6 37.15 43.7 40.35 39.1 40.35C37.8 40.35 36.7 39.35 36.7 38.05C36.7 36.75 37.8 35.75 39.1 35.75C42 35.75 43.4 33.45 44.9 29.65L37.8 13.35C37.7 13.15 37.6 12.75 37.6 12.35C37.6 10.95 38.7 9.85 40.1 9.85C41.5 9.85 42.2 10.85 42.4 11.45L47.4 24.15L52.4 11.45C52.6 10.85 53.3 9.85 54.7 9.85C56.1 9.85 57.2 10.95 57.2 12.35C57.2 12.85 57.2 13.15 57.1 13.35ZM73.3 31.15H61.8H60.6C59.5 31.15 58.5 30.15 58.5 29.05C58.5 28.45 58.7 28.05 59 27.65L64.5 20.35L68 15.75L68.9 14.55H61.2C60.1 14.55 59.1 13.65 59.1 12.45C59.1 11.35 60 10.35 61.2 10.35H72H73C74.2 10.35 75.2 11.35 75.2 12.55C75.2 13.15 75 13.65 74.7 13.95L65 26.95H73.3C74.4 26.95 75.4 27.95 75.4 29.05C75.4 30.15 74.5 31.15 73.3 31.15Z" fill="#491D55"/>
</svg>
