<svg width="32" height="32" viewBox="0 0 32 32" fill="none" xmlns="http://www.w3.org/2000/svg">
<path d="M15.9993 2.6665C19.622 2.6665 20.074 2.67984 21.4953 2.7465C22.9153 2.81317 23.882 3.03584 24.7327 3.3665C25.6127 3.70517 26.354 4.16384 27.0954 4.90384C27.7733 5.57037 28.298 6.37662 28.6327 7.2665C28.962 8.11584 29.186 9.08384 29.2527 10.5038C29.3153 11.9252 29.3327 12.3772 29.3327 15.9998C29.3327 19.6225 29.3194 20.0745 29.2527 21.4958C29.186 22.9158 28.962 23.8825 28.6327 24.7332C28.2989 25.6235 27.7742 26.43 27.0954 27.0958C26.4286 27.7736 25.6224 28.2982 24.7327 28.6332C23.8833 28.9625 22.9153 29.1865 21.4953 29.2532C20.074 29.3158 19.622 29.3332 15.9993 29.3332C12.3767 29.3332 11.9247 29.3198 10.5033 29.2532C9.08335 29.1865 8.11668 28.9625 7.26602 28.6332C6.37578 28.2991 5.56939 27.7744 4.90335 27.0958C4.22522 26.4294 3.70059 25.6231 3.36602 24.7332C3.03535 23.8838 2.81268 22.9158 2.74602 21.4958C2.68335 20.0745 2.66602 19.6225 2.66602 15.9998C2.66602 12.3772 2.67935 11.9252 2.74602 10.5038C2.81268 9.0825 3.03535 8.11717 3.36602 7.2665C3.69966 6.37608 4.22442 5.5696 4.90335 4.90384C5.56958 4.22548 6.37592 3.70081 7.26602 3.3665C8.11668 3.03584 9.08202 2.81317 10.5033 2.7465C11.9247 2.68384 12.3767 2.6665 15.9993 2.6665ZM15.9993 9.33317C14.2312 9.33317 12.5355 10.0355 11.2853 11.2858C10.0351 12.536 9.33268 14.2317 9.33268 15.9998C9.33268 17.7679 10.0351 19.4636 11.2853 20.7139C12.5355 21.9641 14.2312 22.6665 15.9993 22.6665C17.7675 22.6665 19.4632 21.9641 20.7134 20.7139C21.9636 19.4636 22.666 17.7679 22.666 15.9998C22.666 14.2317 21.9636 12.536 20.7134 11.2858C19.4632 10.0355 17.7675 9.33317 15.9993 9.33317ZM24.666 8.99984C24.666 8.55781 24.4904 8.13389 24.1779 7.82133C23.8653 7.50877 23.4414 7.33317 22.9993 7.33317C22.5573 7.33317 22.1334 7.50877 21.8208 7.82133C21.5083 8.13389 21.3327 8.55781 21.3327 8.99984C21.3327 9.44186 21.5083 9.86579 21.8208 10.1783C22.1334 10.4909 22.5573 10.6665 22.9993 10.6665C23.4414 10.6665 23.8653 10.4909 24.1779 10.1783C24.4904 9.86579 24.666 9.44186 24.666 8.99984ZM15.9993 11.9998C17.0602 11.9998 18.0776 12.4213 18.8278 13.1714C19.5779 13.9216 19.9993 14.939 19.9993 15.9998C19.9993 17.0607 19.5779 18.0781 18.8278 18.8283C18.0776 19.5784 17.0602 19.9998 15.9993 19.9998C14.9385 19.9998 13.9211 19.5784 13.1709 18.8283C12.4208 18.0781 11.9993 17.0607 11.9993 15.9998C11.9993 14.939 12.4208 13.9216 13.1709 13.1714C13.9211 12.4213 14.9385 11.9998 15.9993 11.9998Z" fill="black"/>
</svg>
