<svg width="418" height="79" viewBox="0 0 418 79" fill="none" xmlns="http://www.w3.org/2000/svg">
<path d="M47.976 12.168L63.68 5.408V78L40.904 58.032V51.376L4.4 19.552V5.30399L47.976 43.472V12.168ZM0.136 78V23.816L36.64 55.64V62.296L15.84 44.096V78H0.136ZM80.9757 5.30399H96.6797V38.064H92.4157V18.2H80.9757V5.30399ZM88.1517 22.464V42.432H92.4157V77.896L76.7117 71.136V22.464H88.1517ZM128.691 21.008V28.184H123.491V5.408L147.931 5.30399C154.171 5.30399 159.51 7.55733 163.947 12.064C168.454 16.5013 170.707 21.8747 170.707 28.184C170.707 30.9573 170.222 33.6267 169.251 36.192C168.281 38.7573 166.929 41.0453 165.195 43.056C163.462 45.0667 161.417 46.696 159.059 47.944L153.339 39.208H128.691V35.256H147.931C149.873 35.256 151.537 34.5627 152.923 33.176C154.31 31.7893 155.003 30.1253 155.003 28.184C155.003 26.8667 154.691 25.6533 154.067 24.544C153.443 23.4347 152.577 22.568 151.467 21.944C150.358 21.32 149.179 21.008 147.931 21.008H128.691ZM154.795 52.312L171.123 78H152.403L137.947 55.224H124.427V71.136L108.723 77.896V9.56799H119.227V32.448H124.427V43.472H149.075L154.795 52.208V52.312ZM273.581 5.512V78L257.981 71.24V43.264L229.589 71.76L218.045 60.216V53.768L185.285 21.008V5.30399L229.589 49.608L273.581 5.512ZM181.021 78V23.816L213.781 56.68V63.024L196.725 45.968V78H181.021ZM318.985 38.272L314.825 47.008H297.665L318.985 0.727997L345.401 58.24H312.537L314.825 53.352H325.849L318.985 38.272ZM341.137 62.608L345.401 71.968L331.049 78.208L328.761 73.216H300.577L298.289 78.208H281.025L293.401 51.272H310.561L305.361 62.608H341.137ZM401.515 12.168L417.219 5.408V78L394.443 58.032V51.376L357.939 19.552V5.30399L401.515 43.472V12.168ZM353.675 78V23.816L390.179 55.64V62.296L369.379 44.096V78H353.675Z" fill="black"/>
</svg>
