<svg width="150" height="117" viewBox="0 0 150 117" fill="none" xmlns="http://www.w3.org/2000/svg">
<path d="M36.6096 6.65987C8.76754 12.9593 5.81223 13.7371 3.71241 15.7591C2.46807 16.9257 1.06819 19.181 0.601565 20.7365C0.0571668 22.5252 -0.0983755 36.2129 0.0571669 59.6221L0.29048 95.7857L2.07922 98.3521C3.09024 99.6742 4.5679 101.23 5.34561 101.618C6.12332 102.007 20.7443 105.507 37.854 109.396C62.2741 114.917 70.2068 116.395 74.873 116.395C82.4946 116.395 141.99 103.252 145.334 100.841C149.844 97.5744 150 96.4078 150 58.2222C150 37.7683 149.689 22.2919 149.222 20.6587C148.833 19.181 147.434 16.9257 146.189 15.7591C144.167 13.8148 141.056 12.9593 114.536 7.04873C73.2398 -2.28381 76.4285 -2.28381 36.6096 6.65987ZM33.421 32.4799L36.9207 39.6349L40.3426 32.4799L43.6868 25.4027H51.3861H59.0855L57.2968 28.5913C56.2857 30.3023 54.6525 32.1688 53.5637 32.791C50.2973 34.502 45.1644 40.3348 43.5313 44.1456C41.1981 49.434 40.7315 55.2669 42.2091 61.0997C42.9091 63.7439 43.4535 68.0213 43.4535 70.5878V75.1763H36.8429H30.2324V64.2883V53.4781L23.233 40.7237C19.4222 33.802 16.078 27.4248 15.7669 26.7248C15.3781 25.5583 16.078 25.4027 22.6108 25.4027H29.8435L33.421 32.4799ZM94.4714 36.2907L97.7378 42.9012L100.849 36.0574L104.037 29.2913H110.726C114.381 29.2913 117.336 29.6024 117.336 29.9135C117.336 30.3023 114.459 35.7463 110.959 42.2013L104.504 53.7892L104.115 62.344L103.726 70.8989L97.7378 71.1322L91.6716 71.3655V60.4775C91.6716 46.0121 90.5051 42.6679 82.9612 35.4352C80.0837 32.6355 77.6728 30.1468 77.6728 29.8357C77.6728 29.5246 80.7059 29.3691 84.5167 29.4468L91.2828 29.6801L94.4714 36.2907ZM73.862 39.1682C76.584 40.6459 78.8394 42.5124 80.3948 44.69C82.4946 47.8008 82.7279 48.6563 82.7279 54.1781C82.7279 59.6998 82.4946 60.5553 80.3948 63.6662C70.7512 77.2761 49.4419 70.8211 49.4419 54.1781C49.4419 41.3458 62.4297 33.4132 73.862 39.1682ZM127.213 46.1676C133.124 48.8896 135.846 56.6667 133.046 62.8884C128.924 72.221 116.558 73.932 110.57 66.0771C107.537 62.1107 107.148 54.878 109.715 51.0672C113.759 45.1566 120.836 43.1346 127.213 46.1676ZM72.2288 74.3986C72.2288 74.7874 70.8289 75.1763 69.118 75.1763C67.407 75.1763 66.0071 74.7874 66.0071 74.3986C66.0071 73.932 67.407 73.6209 69.118 73.6209C70.8289 73.6209 72.2288 73.932 72.2288 74.3986ZM79.2282 74.3986C79.2282 74.7874 77.8283 75.1763 76.1174 75.1763C74.4064 75.1763 73.0065 74.7874 73.0065 74.3986C73.0065 73.932 74.4064 73.6209 76.1174 73.6209C77.8283 73.6209 79.2282 73.932 79.2282 74.3986ZM86.2276 74.3986C86.2276 74.7874 84.8278 75.1763 83.1168 75.1763C81.4058 75.1763 80.0059 74.7874 80.0059 74.3986C80.0059 73.932 81.4058 73.6209 83.1168 73.6209C84.8278 73.6209 86.2276 73.932 86.2276 74.3986ZM93.227 74.3986C93.227 74.7874 91.8272 75.1763 90.1162 75.1763C88.4052 75.1763 87.0053 74.7874 87.0053 74.3986C87.0053 73.932 88.4052 73.6209 90.1162 73.6209C91.8272 73.6209 93.227 73.932 93.227 74.3986ZM100.226 74.3986C100.226 74.7874 98.8266 75.1763 97.1156 75.1763C95.4046 75.1763 94.0048 74.7874 94.0048 74.3986C94.0048 73.932 95.4046 73.6209 97.1156 73.6209C98.8266 73.6209 100.226 73.932 100.226 74.3986ZM107.226 74.3986C107.226 74.7874 105.826 75.1763 104.115 75.1763C102.404 75.1763 101.004 74.7874 101.004 74.3986C101.004 73.932 102.404 73.6209 104.115 73.6209C105.826 73.6209 107.226 73.932 107.226 74.3986ZM114.225 74.3986C114.225 74.7874 112.825 75.1763 111.114 75.1763C109.403 75.1763 108.004 74.7874 108.004 74.3986C108.004 73.932 109.403 73.6209 111.114 73.6209C112.825 73.6209 114.225 73.932 114.225 74.3986ZM121.225 74.3986C121.225 74.7874 119.825 75.1763 118.114 75.1763C116.403 75.1763 115.003 74.7874 115.003 74.3986C115.003 73.932 116.403 73.6209 118.114 73.6209C119.825 73.6209 121.225 73.932 121.225 74.3986ZM119.747 80.6203C120.136 80.6203 120.447 81.1647 120.447 81.8646C120.447 82.6423 119.825 83.0312 118.736 82.9534C114.459 82.5646 113.37 83.9644 117.258 84.7421C119.747 85.2865 120.758 87.0753 119.669 89.1751C118.269 91.8193 111.114 92.0526 111.114 89.4084C111.114 88.4752 111.737 88.3196 113.759 88.7085C117.414 89.4084 118.036 87.9308 114.614 86.5309C113.136 85.9087 111.892 84.8977 111.892 84.2755C111.892 81.8646 115.314 79.5315 117.958 80.3092C118.58 80.4647 119.358 80.6203 119.747 80.6203ZM76.7395 81.5535C78.0617 82.8756 77.9061 85.0532 76.1952 86.7642C75.1841 87.7752 74.9508 88.5529 75.4952 89.4862C76.0396 90.4194 75.8841 90.7305 74.562 90.7305C73.7065 90.7305 72.7732 90.1861 72.5399 89.564C72.2288 88.9418 71.6067 88.3974 70.9845 88.3974C70.3623 88.3974 69.8957 88.9418 69.8957 89.564C69.8957 90.1861 69.1957 90.7305 68.3403 90.7305C66.5515 90.7305 66.5515 90.7305 67.6403 85.0532L68.5736 80.6203H72.151C74.1731 80.6203 76.1952 81.0091 76.7395 81.5535ZM82.3391 82.6423L83.1168 84.6644L84.75 82.6423C85.6055 81.5535 87.0831 80.6203 87.9386 80.6203C89.3385 80.6203 89.1829 81.0091 86.6943 84.0422C85.1388 85.9087 83.8945 88.2418 83.8945 89.0973C83.8945 90.1861 83.4279 90.7305 82.3391 90.7305C81.1725 90.7305 80.7837 90.1861 80.7837 88.4752C80.7837 87.2308 80.2393 84.9755 79.6171 83.42C78.4505 80.698 78.5283 80.6203 80.0059 80.6203C81.017 80.6203 81.8725 81.398 82.3391 82.6423ZM98.9821 81.8646C100.693 83.5756 100.538 86.9975 98.671 89.0196C97.3489 90.3417 96.1823 90.7305 92.8382 90.7305C90.5051 90.7305 88.5608 90.4194 88.5608 90.1084C88.5608 89.7195 88.9496 87.4641 89.4163 85.0532L90.3495 80.6203H94.0825C96.4157 80.6203 98.2044 81.0869 98.9821 81.8646ZM111.114 81.7868C111.114 82.5646 110.337 82.9534 108.47 82.9534C106.993 82.9534 105.515 83.2645 105.282 83.7311C104.97 84.1977 105.826 84.5088 107.148 84.5088C108.781 84.5088 109.559 84.8977 109.559 85.6754C109.559 86.4531 108.781 86.842 107.304 86.842C105.982 86.842 104.737 87.1531 104.504 87.6197C104.193 88.0863 105.126 88.3974 106.759 88.3974C108.704 88.3974 109.559 88.7085 109.559 89.564C109.559 90.4972 108.548 90.7305 105.204 90.7305C101.082 90.7305 100.849 90.6528 101.237 88.9418C101.549 88.0085 101.937 85.7532 102.248 83.8867L102.793 80.6203H106.915C110.103 80.6203 111.114 80.9314 111.114 81.7868Z" fill="black"/>
<path d="M60.4094 41.9681C54.7321 46.7121 55.432 52.545 62.898 63.5885L66.1644 68.3325L68.0309 66.1549C69.042 64.9106 71.2973 61.022 73.0861 57.5223C77.0524 49.7452 76.9746 46.7121 72.6194 42.668C70.3641 40.5682 69.353 40.1793 66.2422 40.1793C63.5202 40.1793 61.9648 40.646 60.4094 41.9681ZM69.7419 47.0232C70.9862 48.6564 70.9085 49.5897 69.4308 51.6895C67.1755 54.8781 62.1203 53.1671 62.1203 49.123C62.1203 45.39 67.2532 43.9124 69.7419 47.0232Z" fill="black"/>
<path d="M117.649 47.6451C115.082 48.8895 113.449 51.5337 113.449 54.489C113.449 56.4333 117.182 64.2882 119.593 67.3212L120.993 69.1877L123.326 65.7658C129.781 56.2777 130.092 50.5227 124.337 47.5674C121.537 46.0897 120.682 46.0897 117.649 47.6451ZM123.871 52.778C125.037 54.7223 123.637 56.8221 120.915 57.1332C119.36 57.3665 118.738 56.9777 118.193 55.5778C117.182 53.0113 118.504 50.9115 120.993 51.2226C122.082 51.3781 123.404 52.0781 123.871 52.778Z" fill="black"/>
<path d="M71.2232 83.4977C69.9789 84.6642 70.7566 86.1419 72.3898 85.9086C74.6451 85.5975 75.3451 82.9533 73.1675 82.9533C72.3898 82.9533 71.4565 83.1866 71.2232 83.4977Z" fill="black"/>
<path d="M92.445 84.4309C92.445 85.2864 92.2117 86.4529 91.9783 87.1529C91.5895 88.1639 92.0561 88.3972 93.9226 88.3972C95.7891 88.3972 96.4113 88.0084 96.8002 86.5307C97.4223 84.042 96.6446 82.9532 94.3115 82.9532C92.9894 82.9532 92.445 83.4199 92.445 84.4309Z" fill="black"/>
</svg>
