<svg width="150" height="114" viewBox="0 0 150 114" fill="none" xmlns="http://www.w3.org/2000/svg">
<path d="M3.71027 15.3701C5.8117 13.3979 8.76672 12.6395 36.6097 6.49551L40.8704 5.56032C57.5806 1.8887 66.0659 0.023499 74.5584 0.00021514C83.333 -0.0235209 92.1077 1.91673 109.943 5.86097L114.536 6.87484C141.055 12.6395 144.166 13.4739 146.188 15.3701C147.432 16.5078 148.832 18.7076 149.222 20.1487C149.689 21.7415 150 36.836 150 56.7849C150 94.0278 149.844 95.1655 145.334 98.3513C141.989 100.703 82.4939 113.522 74.8731 113.522C70.2072 113.522 62.2753 112.08 37.8539 106.695C30.0957 104.975 22.8474 103.334 17.1724 102.018C10.3292 100.431 5.77191 99.3171 5.34512 99.1098C4.56748 98.7307 3.08816 97.2136 2.07904 95.9242L0.28867 93.421L0.0571872 58.1503C-0.0983401 35.3189 0.0571872 21.9691 0.599724 20.2246C0.726316 19.813 0.92163 19.3509 1.16396 18.8735C1.34481 18.5147 1.55459 18.1474 1.78246 17.7862C1.95968 17.5011 2.14776 17.2199 2.34308 16.9498L2.58541 16.6236L2.72647 16.4432C3.05199 16.034 3.38837 15.666 3.71027 15.3701Z" fill="#90FF00"/>
<path d="M39.4526 8.94419C13.6728 14.7771 10.9364 15.4972 8.99212 17.3694C7.83995 18.4496 6.54376 20.5379 6.11169 21.9781C5.60762 23.6344 5.4636 36.3083 5.60762 57.9835L5.82365 91.4684L7.4799 93.8448C8.41604 95.069 9.78424 96.5092 10.5043 96.8692C11.2245 97.2293 24.7625 100.47 40.6048 104.07C63.2162 109.183 70.5612 110.551 74.8819 110.551C81.9389 110.551 137.027 98.3815 140.124 96.1491C144.3 93.1247 144.444 92.0445 144.444 56.6873C144.444 37.7485 144.156 23.4183 143.724 21.9061C143.364 20.5379 142.068 18.4496 140.916 17.3694C139.043 15.5692 136.163 14.7771 111.607 9.30424C73.3697 0.662956 76.3221 0.662956 39.4526 8.94419ZM36.5002 32.8517L39.7407 39.4767L42.9091 32.8517L46.0056 26.2988H53.1347H60.2637L58.6075 29.2512C57.6713 30.8354 56.1591 32.5637 55.151 33.1398C52.1265 34.724 47.3738 40.1248 45.8616 43.6533C43.7013 48.5501 43.2692 53.9509 44.6374 59.3517C45.2855 61.8 45.7896 65.7606 45.7896 68.137V72.3856H39.6687H33.5478V62.3041V52.2946L27.0668 40.4849C23.5383 34.0759 20.4418 28.171 20.1538 27.5229C19.7937 26.4428 20.4418 26.2988 26.4907 26.2988H33.1877L36.5002 32.8517ZM93.0286 36.3803L96.053 42.5012L98.9335 36.1642L101.886 29.8993H108.079C111.463 29.8993 114.2 30.1873 114.2 30.4754C114.2 30.8354 111.535 35.8762 108.295 41.8531L102.318 52.5827L101.958 60.5038L101.598 68.425L96.053 68.641L90.4362 68.8571V58.7756C90.4362 45.3816 89.356 42.2851 82.371 35.5881C79.7066 32.9958 77.4743 30.6914 77.4743 30.4034C77.4743 30.1153 80.2827 29.9713 83.8112 30.0433L90.0761 30.2594L93.0286 36.3803ZM73.9457 39.0447C76.4661 40.4129 78.5544 42.1411 79.9947 44.1574C81.9389 47.0378 82.155 47.83 82.155 52.9427C82.155 58.0555 81.9389 58.8476 79.9947 61.728C71.0653 74.3299 51.3344 68.353 51.3344 52.9427C51.3344 41.061 63.3602 33.7159 73.9457 39.0447ZM123.345 45.5256C128.818 48.046 131.338 55.2471 128.746 61.0079C124.929 69.6492 113.48 71.2334 107.935 63.9604C105.126 60.2878 104.766 53.5908 107.143 50.0623C110.887 44.5895 117.44 42.7172 123.345 45.5256ZM72.4335 71.6655C72.4335 72.0256 71.1373 72.3856 69.5531 72.3856C67.9689 72.3856 66.6727 72.0256 66.6727 71.6655C66.6727 71.2334 67.9689 70.9454 69.5531 70.9454C71.1373 70.9454 72.4335 71.2334 72.4335 71.6655ZM78.9145 71.6655C78.9145 72.0256 77.6183 72.3856 76.0341 72.3856C74.4498 72.3856 73.1536 72.0256 73.1536 71.6655C73.1536 71.2334 74.4498 70.9454 76.0341 70.9454C77.6183 70.9454 78.9145 71.2334 78.9145 71.6655ZM85.3954 71.6655C85.3954 72.0256 84.0993 72.3856 82.515 72.3856C80.9308 72.3856 79.6346 72.0256 79.6346 71.6655C79.6346 71.2334 80.9308 70.9454 82.515 70.9454C84.0993 70.9454 85.3954 71.2334 85.3954 71.6655ZM91.8764 71.6655C91.8764 72.0256 90.5802 72.3856 88.996 72.3856C87.4118 72.3856 86.1156 72.0256 86.1156 71.6655C86.1156 71.2334 87.4118 70.9454 88.996 70.9454C90.5802 70.9454 91.8764 71.2334 91.8764 71.6655ZM98.3574 71.6655C98.3574 72.0256 97.0612 72.3856 95.4769 72.3856C93.8927 72.3856 92.5965 72.0256 92.5965 71.6655C92.5965 71.2334 93.8927 70.9454 95.4769 70.9454C97.0612 70.9454 98.3574 71.2334 98.3574 71.6655ZM104.838 71.6655C104.838 72.0256 103.542 72.3856 101.958 72.3856C100.374 72.3856 99.0775 72.0256 99.0775 71.6655C99.0775 71.2334 100.374 70.9454 101.958 70.9454C103.542 70.9454 104.838 71.2334 104.838 71.6655ZM111.319 71.6655C111.319 72.0256 110.023 72.3856 108.439 72.3856C106.855 72.3856 105.558 72.0256 105.558 71.6655C105.558 71.2334 106.855 70.9454 108.439 70.9454C110.023 70.9454 111.319 71.2334 111.319 71.6655ZM117.8 71.6655C117.8 72.0256 116.504 72.3856 114.92 72.3856C113.336 72.3856 112.039 72.0256 112.039 71.6655C112.039 71.2334 113.336 70.9454 114.92 70.9454C116.504 70.9454 117.8 71.2334 117.8 71.6655ZM116.432 77.4264C116.792 77.4264 117.08 77.9304 117.08 78.5785C117.08 79.2986 116.504 79.6587 115.496 79.5867C111.535 79.2266 110.527 80.5228 114.128 81.2429C116.432 81.747 117.368 83.4032 116.36 85.3475C115.064 87.7959 108.439 88.0119 108.439 85.5636C108.439 84.6994 109.015 84.5554 110.887 84.9155C114.272 85.5636 114.848 84.1954 111.679 82.8992C110.311 82.3231 109.159 81.3869 109.159 80.8109C109.159 78.5785 112.327 76.4182 114.776 77.1383C115.352 77.2823 116.072 77.4264 116.432 77.4264ZM76.6101 78.2905C77.8343 79.5147 77.6903 81.531 76.1061 83.1152C75.1699 84.0513 74.9539 84.7714 75.458 85.6356C75.962 86.4997 75.818 86.7877 74.5938 86.7877C73.8017 86.7877 72.9376 86.2837 72.7216 85.7076C72.4335 85.1315 71.8574 84.6274 71.2813 84.6274C70.7053 84.6274 70.2732 85.1315 70.2732 85.7076C70.2732 86.2837 69.6251 86.7877 68.833 86.7877C67.1767 86.7877 67.1767 86.7877 68.1849 81.531L69.049 77.4264H72.3615C74.2338 77.4264 76.1061 77.7864 76.6101 78.2905ZM81.7949 79.2986L82.515 81.1709L84.0272 79.2986C84.8194 78.2905 86.1876 77.4264 86.9797 77.4264C88.2759 77.4264 88.1319 77.7864 85.8275 80.5948C84.3873 82.3231 83.2351 84.4834 83.2351 85.2755C83.2351 86.2837 82.8031 86.7877 81.7949 86.7877C80.7148 86.7877 80.3547 86.2837 80.3547 84.6994C80.3547 83.5473 79.8506 81.459 79.2745 80.0187C78.1944 77.4984 78.2664 77.4264 79.6346 77.4264C80.5707 77.4264 81.3629 78.1465 81.7949 79.2986ZM97.2052 78.5785C98.7894 80.1628 98.6454 83.3312 96.9172 85.2035C95.693 86.4277 94.6128 86.7877 91.5164 86.7877C89.356 86.7877 87.5558 86.4997 87.5558 86.2117C87.5558 85.8516 87.9158 83.7633 88.3479 81.531L89.212 77.4264H92.6685C94.8288 77.4264 96.4851 77.8584 97.2052 78.5785ZM108.439 78.5065C108.439 79.2266 107.719 79.5867 105.991 79.5867C104.622 79.5867 103.254 79.8747 103.038 80.3068C102.75 80.7388 103.542 81.0269 104.766 81.0269C106.279 81.0269 106.999 81.3869 106.999 82.107C106.999 82.8272 106.279 83.1872 104.91 83.1872C103.686 83.1872 102.534 83.4753 102.318 83.9073C102.03 84.3394 102.894 84.6274 104.406 84.6274C106.207 84.6274 106.999 84.9155 106.999 85.7076C106.999 86.5717 106.063 86.7877 102.966 86.7877C99.1495 86.7877 98.9335 86.7157 99.2935 85.1315C99.5816 84.2674 99.9416 82.1791 100.23 80.4508L100.734 77.4264H104.55C107.503 77.4264 108.439 77.7144 108.439 78.5065Z" fill="black"/>
<path d="M61.4905 41.6372C56.2337 46.0299 56.8818 51.4307 63.7948 61.6562L66.8192 66.0488L68.5475 64.0325C69.4836 62.8804 71.572 59.2798 73.2282 56.0393C76.9007 48.8383 76.8287 46.0299 72.7961 42.2853C70.7078 40.341 69.7717 39.981 66.8913 39.981C64.3709 39.981 62.9307 40.413 61.4905 41.6372ZM70.1317 46.3179C71.2839 47.8301 71.2119 48.6943 69.8437 50.6385C67.7554 53.591 63.0747 52.0067 63.0747 48.2622C63.0747 44.8057 67.8274 43.4375 70.1317 46.3179Z" fill="black"/>
<path d="M114.49 46.8936C112.114 48.0458 110.602 50.4942 110.602 53.2306C110.602 55.0308 114.058 62.3039 116.29 65.1123L117.587 66.8406L119.747 63.6721C125.724 54.8868 126.012 49.558 120.683 46.8216C118.091 45.4534 117.299 45.4534 114.49 46.8936ZM120.251 51.6463C121.331 53.4466 120.035 55.3909 117.515 55.6789C116.074 55.895 115.498 55.5349 114.994 54.2387C114.058 51.8624 115.282 49.9181 117.587 50.2061C118.595 50.3501 119.819 50.9982 120.251 51.6463Z" fill="black"/>
<path d="M71.502 80.0906C70.3498 81.1708 71.0699 82.539 72.5821 82.323C74.6704 82.0349 75.3185 79.5866 73.3022 79.5866C72.5821 79.5866 71.718 79.8026 71.502 80.0906Z" fill="black"/>
<path d="M91.151 80.9547C91.151 81.7468 90.935 82.8269 90.719 83.475C90.3589 84.4112 90.791 84.6272 92.5192 84.6272C94.2475 84.6272 94.8236 84.2671 95.1836 82.8989C95.7597 80.5946 95.0396 79.5864 92.8793 79.5864C91.6551 79.5864 91.151 80.0185 91.151 80.9547Z" fill="black"/>
</svg>
